G04*
G04 #@! TF.GenerationSoftware,Altium Limited,Altium Designer,22.11.1 (43)*
G04*
G04 Layer_Color=8388736*
%FSLAX25Y25*%
%MOIN*%
G70*
G04*
G04 #@! TF.SameCoordinates,21ABD361-9BD2-418E-A470-0DA88BDA0781*
G04*
G04*
G04 #@! TF.FilePolarity,Negative*
G04*
G01*
G75*
%ADD11R,0.04737X0.04737*%
%ADD12O,0.07099X0.03162*%
%ADD13R,0.04737X0.04737*%
%ADD14R,0.05131X0.04540*%
G04:AMPARAMS|DCode=15|XSize=47.37mil|YSize=106.42mil|CornerRadius=13.84mil|HoleSize=0mil|Usage=FLASHONLY|Rotation=90.000|XOffset=0mil|YOffset=0mil|HoleType=Round|Shape=RoundedRectangle|*
%AMROUNDEDRECTD15*
21,1,0.04737,0.07874,0,0,90.0*
21,1,0.01968,0.10642,0,0,90.0*
1,1,0.02769,0.03937,0.00984*
1,1,0.02769,0.03937,-0.00984*
1,1,0.02769,-0.03937,-0.00984*
1,1,0.02769,-0.03937,0.00984*
%
%ADD15ROUNDEDRECTD15*%
%ADD16C,0.12992*%
D11*
X14567Y14173D02*
D03*
X8661D02*
D03*
X2953D02*
D03*
X-2953D02*
D03*
X6102Y-14173D02*
D03*
X12008D02*
D03*
D12*
X10827Y-7500D02*
D03*
Y-2500D02*
D03*
Y2500D02*
D03*
Y7500D02*
D03*
X-10827Y-7500D02*
D03*
Y-2500D02*
D03*
Y2500D02*
D03*
Y7500D02*
D03*
D13*
X-18504Y2165D02*
D03*
Y8071D02*
D03*
D14*
X-6299Y-14173D02*
D03*
X-11811D02*
D03*
X-14567Y14173D02*
D03*
X-9055D02*
D03*
D15*
X-21260Y-4331D02*
D03*
X22185Y4468D02*
D03*
Y-10886D02*
D03*
Y9587D02*
D03*
Y-650D02*
D03*
X-21260Y-9449D02*
D03*
X22185Y-5768D02*
D03*
D16*
X0Y-24409D02*
D03*
Y24409D02*
D03*
M02*
