G04*
G04 #@! TF.GenerationSoftware,Altium Limited,Altium Designer,20.1.12 (249)*
G04*
G04 Layer_Color=32896*
%FSLAX25Y25*%
%MOIN*%
G70*
G04*
G04 #@! TF.SameCoordinates,7D390CBD-A1CC-4F8B-97A9-56BF33994722*
G04*
G04*
G04 #@! TF.FilePolarity,Positive*
G04*
G01*
G75*
%ADD24C,0.00787*%
G36*
X26378Y7490D02*
Y2497D01*
Y-2495D01*
Y-7477D01*
Y-12857D01*
X7862D01*
Y-7477D01*
Y-2495D01*
Y2497D01*
Y7490D01*
Y12070D01*
X26378D01*
Y7490D01*
D02*
G37*
G36*
X16929Y17717D02*
X11345D01*
Y24336D01*
X16929D01*
Y17717D01*
D02*
G37*
G36*
X2756Y-7471D02*
Y-12857D01*
X-26482D01*
Y-7471D01*
Y-2891D01*
X2756D01*
Y-7471D01*
D02*
G37*
%LPC*%
G36*
X20370Y11676D02*
X20300D01*
X20247Y11670D01*
X20183Y11665D01*
X20108Y11659D01*
X20026Y11653D01*
X19939Y11635D01*
X19752Y11600D01*
X19560Y11542D01*
X19460Y11507D01*
X19367Y11466D01*
X19280Y11420D01*
X19198Y11361D01*
X19192Y11355D01*
X19181Y11350D01*
X19157Y11326D01*
X19128Y11303D01*
X19093Y11274D01*
X19058Y11233D01*
X19017Y11186D01*
X18971Y11134D01*
X18924Y11076D01*
X18878Y11011D01*
X18831Y10942D01*
X18790Y10860D01*
X18743Y10778D01*
X18708Y10691D01*
X18673Y10592D01*
X18650Y10493D01*
X19460Y10341D01*
Y10347D01*
X19466Y10353D01*
X19478Y10388D01*
X19501Y10440D01*
X19536Y10510D01*
X19577Y10586D01*
X19635Y10662D01*
X19705Y10738D01*
X19787Y10808D01*
X19799Y10813D01*
X19828Y10837D01*
X19880Y10866D01*
X19944Y10895D01*
X20032Y10930D01*
X20131Y10953D01*
X20242Y10977D01*
X20370Y10982D01*
X20422D01*
X20457Y10977D01*
X20504Y10971D01*
X20557Y10965D01*
X20615Y10953D01*
X20679Y10942D01*
X20813Y10901D01*
X20883Y10872D01*
X20953Y10837D01*
X21023Y10796D01*
X21093Y10755D01*
X21157Y10697D01*
X21221Y10638D01*
X21227Y10633D01*
X21233Y10621D01*
X21250Y10603D01*
X21268Y10574D01*
X21291Y10539D01*
X21320Y10498D01*
X21349Y10446D01*
X21373Y10388D01*
X21402Y10318D01*
X21431Y10242D01*
X21460Y10160D01*
X21484Y10073D01*
X21501Y9974D01*
X21519Y9863D01*
X21524Y9752D01*
X21530Y9630D01*
Y9624D01*
Y9601D01*
Y9560D01*
X21524Y9513D01*
X21519Y9449D01*
X21513Y9385D01*
X21501Y9303D01*
X21489Y9222D01*
X21454Y9047D01*
X21396Y8866D01*
X21361Y8779D01*
X21320Y8697D01*
X21268Y8615D01*
X21215Y8545D01*
X21210Y8540D01*
X21198Y8528D01*
X21180Y8511D01*
X21157Y8487D01*
X21122Y8464D01*
X21087Y8429D01*
X21040Y8400D01*
X20988Y8365D01*
X20930Y8330D01*
X20871Y8301D01*
X20726Y8242D01*
X20644Y8219D01*
X20562Y8202D01*
X20469Y8190D01*
X20376Y8184D01*
X20329D01*
X20282Y8190D01*
X20212Y8196D01*
X20137Y8207D01*
X20049Y8225D01*
X19956Y8248D01*
X19863Y8283D01*
X19857D01*
X19851Y8289D01*
X19822Y8301D01*
X19770Y8324D01*
X19711Y8353D01*
X19641Y8388D01*
X19565Y8429D01*
X19490Y8476D01*
X19420Y8528D01*
Y9047D01*
X20353D01*
Y9729D01*
X18598D01*
Y8108D01*
X18609Y8096D01*
X18627Y8085D01*
X18644Y8067D01*
X18673Y8044D01*
X18703Y8021D01*
X18784Y7962D01*
X18895Y7898D01*
X19023Y7823D01*
X19169Y7747D01*
X19344Y7677D01*
X19350D01*
X19367Y7671D01*
X19390Y7659D01*
X19425Y7648D01*
X19472Y7636D01*
X19525Y7619D01*
X19583Y7601D01*
X19647Y7583D01*
X19793Y7548D01*
X19962Y7519D01*
X20137Y7496D01*
X20323Y7490D01*
X20388D01*
X20428Y7496D01*
X20487D01*
X20551Y7502D01*
X20621Y7514D01*
X20702Y7525D01*
X20871Y7554D01*
X21058Y7601D01*
X21250Y7665D01*
X21338Y7706D01*
X21431Y7753D01*
X21437Y7758D01*
X21449Y7764D01*
X21478Y7782D01*
X21507Y7805D01*
X21548Y7828D01*
X21588Y7863D01*
X21641Y7904D01*
X21693Y7951D01*
X21810Y8056D01*
X21927Y8190D01*
X22037Y8341D01*
X22136Y8516D01*
Y8522D01*
X22148Y8540D01*
X22160Y8569D01*
X22171Y8604D01*
X22189Y8650D01*
X22212Y8703D01*
X22230Y8767D01*
X22253Y8837D01*
X22276Y8913D01*
X22294Y9000D01*
X22335Y9181D01*
X22358Y9379D01*
X22370Y9595D01*
Y9659D01*
X22364Y9700D01*
Y9758D01*
X22358Y9822D01*
X22346Y9892D01*
X22335Y9974D01*
X22306Y10143D01*
X22259Y10335D01*
X22195Y10528D01*
X22154Y10621D01*
X22107Y10714D01*
X22102Y10720D01*
X22096Y10738D01*
X22078Y10761D01*
X22061Y10796D01*
X22031Y10837D01*
X21996Y10883D01*
X21956Y10936D01*
X21915Y10994D01*
X21862Y11052D01*
X21804Y11117D01*
X21740Y11181D01*
X21670Y11245D01*
X21594Y11303D01*
X21519Y11367D01*
X21338Y11472D01*
X21332D01*
X21320Y11484D01*
X21297Y11490D01*
X21268Y11507D01*
X21227Y11519D01*
X21186Y11536D01*
X21128Y11554D01*
X21070Y11577D01*
X21005Y11594D01*
X20930Y11612D01*
X20848Y11630D01*
X20766Y11647D01*
X20580Y11670D01*
X20370Y11676D01*
D02*
G37*
G36*
X25984Y11600D02*
X24498D01*
X24433Y11594D01*
X24282D01*
X24119Y11583D01*
X23955Y11571D01*
X23886Y11565D01*
X23816Y11560D01*
X23757Y11548D01*
X23711Y11536D01*
X23705D01*
X23693Y11530D01*
X23676Y11525D01*
X23652Y11519D01*
X23588Y11490D01*
X23506Y11455D01*
X23419Y11402D01*
X23320Y11332D01*
X23227Y11245D01*
X23133Y11140D01*
Y11134D01*
X23122Y11128D01*
X23110Y11111D01*
X23098Y11087D01*
X23075Y11052D01*
X23058Y11017D01*
X23034Y10977D01*
X23011Y10930D01*
X22970Y10813D01*
X22929Y10685D01*
X22906Y10528D01*
X22894Y10359D01*
Y10294D01*
X22900Y10265D01*
Y10225D01*
X22912Y10143D01*
X22929Y10044D01*
X22953Y9933D01*
X22988Y9828D01*
X23034Y9729D01*
X23040Y9717D01*
X23058Y9688D01*
X23087Y9641D01*
X23128Y9583D01*
X23174Y9525D01*
X23238Y9455D01*
X23302Y9391D01*
X23378Y9332D01*
X23390Y9327D01*
X23413Y9309D01*
X23454Y9286D01*
X23506Y9257D01*
X23571Y9222D01*
X23641Y9193D01*
X23716Y9163D01*
X23798Y9140D01*
X23810D01*
X23827Y9134D01*
X23851D01*
X23880Y9128D01*
X23920Y9123D01*
X23961Y9117D01*
X24014D01*
X24066Y9111D01*
X24130Y9105D01*
X24200Y9099D01*
X24276Y9093D01*
X24358D01*
X24445Y9088D01*
X25168D01*
Y7566D01*
X25984D01*
Y11600D01*
D02*
G37*
G36*
X10739D02*
X9876D01*
X8255Y7566D01*
X9136D01*
X9485Y8481D01*
X11106D01*
X11438Y7566D01*
X12301D01*
X12295Y7581D01*
X10739Y11600D01*
D02*
G37*
G36*
X12878Y11670D02*
X12295D01*
X13304Y7496D01*
X13875D01*
X12878Y11670D01*
D02*
G37*
G36*
X16062Y11676D02*
X16021D01*
X15974Y11670D01*
X15916D01*
X15840Y11659D01*
X15753Y11647D01*
X15653Y11630D01*
X15549Y11606D01*
X15438Y11577D01*
X15321Y11542D01*
X15205Y11495D01*
X15082Y11443D01*
X14965Y11379D01*
X14849Y11303D01*
X14738Y11216D01*
X14633Y11117D01*
X14627Y11111D01*
X14610Y11093D01*
X14581Y11058D01*
X14552Y11017D01*
X14511Y10959D01*
X14464Y10889D01*
X14417Y10808D01*
X14365Y10714D01*
X14313Y10615D01*
X14266Y10498D01*
X14219Y10370D01*
X14178Y10236D01*
X14143Y10085D01*
X14120Y9927D01*
X14103Y9758D01*
X14097Y9577D01*
Y9537D01*
X14103Y9484D01*
Y9414D01*
X14114Y9332D01*
X14126Y9239D01*
X14143Y9128D01*
X14161Y9018D01*
X14190Y8895D01*
X14225Y8767D01*
X14272Y8639D01*
X14324Y8511D01*
X14383Y8388D01*
X14458Y8266D01*
X14540Y8149D01*
X14633Y8038D01*
X14639Y8032D01*
X14657Y8015D01*
X14686Y7986D01*
X14732Y7951D01*
X14785Y7910D01*
X14849Y7863D01*
X14925Y7817D01*
X15006Y7764D01*
X15105Y7712D01*
X15210Y7665D01*
X15327Y7619D01*
X15455Y7578D01*
X15589Y7543D01*
X15735Y7514D01*
X15887Y7496D01*
X16050Y7490D01*
X16091D01*
X16137Y7496D01*
X16196Y7502D01*
X16272Y7508D01*
X16359Y7519D01*
X16458Y7537D01*
X16563Y7560D01*
X16680Y7589D01*
X16790Y7624D01*
X16913Y7671D01*
X17029Y7723D01*
X17152Y7782D01*
X17263Y7858D01*
X17373Y7939D01*
X17478Y8038D01*
X17484Y8044D01*
X17502Y8061D01*
X17525Y8096D01*
X17560Y8137D01*
X17601Y8196D01*
X17647Y8266D01*
X17694Y8341D01*
X17741Y8435D01*
X17793Y8534D01*
X17840Y8650D01*
X17886Y8773D01*
X17927Y8907D01*
X17962Y9053D01*
X17986Y9210D01*
X18003Y9379D01*
X18009Y9554D01*
Y9612D01*
X18003Y9659D01*
Y9711D01*
X17997Y9770D01*
X17991Y9840D01*
X17986Y9916D01*
X17962Y10079D01*
X17933Y10254D01*
X17886Y10429D01*
X17828Y10592D01*
Y10598D01*
X17822Y10603D01*
X17811Y10621D01*
X17805Y10644D01*
X17770Y10702D01*
X17729Y10778D01*
X17676Y10866D01*
X17612Y10953D01*
X17537Y11052D01*
X17455Y11146D01*
X17449Y11151D01*
X17443Y11157D01*
X17414Y11186D01*
X17362Y11233D01*
X17298Y11286D01*
X17222Y11344D01*
X17134Y11408D01*
X17035Y11466D01*
X16930Y11513D01*
X16924D01*
X16913Y11519D01*
X16889Y11530D01*
X16860Y11536D01*
X16825Y11554D01*
X16784Y11565D01*
X16732Y11577D01*
X16680Y11594D01*
X16551Y11624D01*
X16406Y11653D01*
X16237Y11670D01*
X16062Y11676D01*
D02*
G37*
G36*
X20271Y6683D02*
X20201D01*
X20148Y6678D01*
X20084Y6672D01*
X20014Y6660D01*
X19933Y6648D01*
X19845Y6631D01*
X19752Y6608D01*
X19653Y6578D01*
X19554Y6543D01*
X19449Y6497D01*
X19350Y6450D01*
X19256Y6392D01*
X19157Y6322D01*
X19070Y6246D01*
X19064D01*
X19058Y6234D01*
X19041Y6217D01*
X19023Y6199D01*
X19000Y6170D01*
X18977Y6135D01*
X18913Y6054D01*
X18848Y5949D01*
X18778Y5821D01*
X18714Y5675D01*
X18656Y5506D01*
X19460Y5313D01*
Y5319D01*
X19466Y5325D01*
Y5342D01*
X19478Y5366D01*
X19496Y5418D01*
X19525Y5488D01*
X19565Y5570D01*
X19618Y5651D01*
X19688Y5733D01*
X19764Y5803D01*
X19775Y5809D01*
X19804Y5832D01*
X19851Y5861D01*
X19915Y5896D01*
X19997Y5931D01*
X20090Y5960D01*
X20195Y5984D01*
X20312Y5990D01*
X20353D01*
X20388Y5984D01*
X20422Y5978D01*
X20469Y5972D01*
X20568Y5949D01*
X20685Y5908D01*
X20807Y5850D01*
X20871Y5815D01*
X20930Y5774D01*
X20988Y5721D01*
X21040Y5663D01*
Y5657D01*
X21052Y5646D01*
X21064Y5628D01*
X21081Y5599D01*
X21104Y5564D01*
X21128Y5523D01*
X21151Y5471D01*
X21174Y5412D01*
X21204Y5342D01*
X21227Y5267D01*
X21250Y5179D01*
X21274Y5086D01*
X21291Y4981D01*
X21303Y4870D01*
X21309Y4748D01*
X21314Y4614D01*
Y4608D01*
Y4579D01*
Y4538D01*
X21309Y4491D01*
Y4427D01*
X21297Y4351D01*
X21291Y4276D01*
X21279Y4188D01*
X21245Y4007D01*
X21198Y3827D01*
X21169Y3739D01*
X21128Y3658D01*
X21087Y3582D01*
X21040Y3518D01*
X21035Y3512D01*
X21029Y3506D01*
X21011Y3489D01*
X20988Y3465D01*
X20930Y3418D01*
X20848Y3360D01*
X20749Y3296D01*
X20627Y3249D01*
X20487Y3209D01*
X20411Y3203D01*
X20329Y3197D01*
X20300D01*
X20277Y3203D01*
X20212Y3209D01*
X20137Y3220D01*
X20055Y3249D01*
X19962Y3284D01*
X19869Y3331D01*
X19775Y3401D01*
X19764Y3413D01*
X19735Y3442D01*
X19694Y3489D01*
X19647Y3559D01*
X19589Y3652D01*
X19536Y3762D01*
X19484Y3897D01*
X19437Y4054D01*
X18644Y3809D01*
Y3803D01*
X18650Y3780D01*
X18662Y3745D01*
X18679Y3698D01*
X18703Y3646D01*
X18726Y3582D01*
X18755Y3512D01*
X18790Y3436D01*
X18872Y3279D01*
X18977Y3115D01*
X19105Y2958D01*
X19175Y2888D01*
X19251Y2824D01*
X19256Y2818D01*
X19268Y2812D01*
X19291Y2795D01*
X19326Y2771D01*
X19367Y2748D01*
X19420Y2725D01*
X19478Y2696D01*
X19542Y2667D01*
X19618Y2631D01*
X19700Y2602D01*
X19787Y2579D01*
X19880Y2556D01*
X19979Y2532D01*
X20090Y2515D01*
X20201Y2509D01*
X20323Y2503D01*
X20358D01*
X20399Y2509D01*
X20457Y2515D01*
X20522Y2521D01*
X20603Y2532D01*
X20691Y2550D01*
X20790Y2573D01*
X20889Y2602D01*
X20994Y2637D01*
X21104Y2684D01*
X21215Y2736D01*
X21326Y2795D01*
X21437Y2871D01*
X21542Y2952D01*
X21641Y3051D01*
X21647Y3057D01*
X21664Y3075D01*
X21688Y3110D01*
X21723Y3150D01*
X21757Y3209D01*
X21804Y3273D01*
X21851Y3354D01*
X21897Y3448D01*
X21944Y3547D01*
X21991Y3658D01*
X22037Y3786D01*
X22072Y3920D01*
X22107Y4060D01*
X22131Y4217D01*
X22148Y4380D01*
X22154Y4555D01*
Y4602D01*
X22148Y4654D01*
Y4724D01*
X22136Y4806D01*
X22125Y4905D01*
X22113Y5010D01*
X22090Y5133D01*
X22061Y5255D01*
X22026Y5383D01*
X21985Y5511D01*
X21932Y5646D01*
X21874Y5774D01*
X21804Y5896D01*
X21728Y6013D01*
X21635Y6124D01*
X21629Y6129D01*
X21612Y6147D01*
X21583Y6176D01*
X21542Y6211D01*
X21489Y6252D01*
X21425Y6299D01*
X21355Y6351D01*
X21268Y6403D01*
X21174Y6456D01*
X21075Y6508D01*
X20959Y6555D01*
X20842Y6596D01*
X20708Y6631D01*
X20574Y6660D01*
X20422Y6678D01*
X20271Y6683D01*
D02*
G37*
G36*
X17921Y6578D02*
X17105D01*
Y3255D01*
X15076D01*
Y2573D01*
X17921D01*
Y6578D01*
D02*
G37*
G36*
X24363Y6683D02*
X24294D01*
X24241Y6678D01*
X24177Y6672D01*
X24101Y6666D01*
X24025Y6654D01*
X23938Y6643D01*
X23751Y6602D01*
X23658Y6573D01*
X23565Y6543D01*
X23471Y6503D01*
X23384Y6456D01*
X23302Y6403D01*
X23227Y6345D01*
X23221Y6339D01*
X23209Y6328D01*
X23192Y6310D01*
X23168Y6287D01*
X23139Y6252D01*
X23104Y6211D01*
X23069Y6165D01*
X23028Y6112D01*
X22994Y6048D01*
X22959Y5984D01*
X22923Y5908D01*
X22894Y5826D01*
X22865Y5745D01*
X22842Y5651D01*
X22824Y5558D01*
X22819Y5453D01*
X23635Y5424D01*
Y5430D01*
Y5436D01*
X23646Y5477D01*
X23658Y5529D01*
X23681Y5593D01*
X23711Y5669D01*
X23751Y5739D01*
X23804Y5809D01*
X23862Y5867D01*
X23868Y5873D01*
X23891Y5891D01*
X23932Y5914D01*
X23990Y5937D01*
X24060Y5960D01*
X24148Y5984D01*
X24253Y6001D01*
X24375Y6007D01*
X24433D01*
X24498Y6001D01*
X24573Y5990D01*
X24661Y5972D01*
X24754Y5943D01*
X24842Y5908D01*
X24923Y5855D01*
X24929Y5850D01*
X24941Y5838D01*
X24964Y5821D01*
X24987Y5791D01*
X25011Y5756D01*
X25034Y5710D01*
X25046Y5663D01*
X25051Y5605D01*
Y5599D01*
Y5582D01*
X25046Y5552D01*
X25034Y5523D01*
X25022Y5482D01*
X25005Y5442D01*
X24976Y5401D01*
X24935Y5360D01*
X24929Y5354D01*
X24900Y5337D01*
X24882Y5325D01*
X24853Y5313D01*
X24824Y5296D01*
X24783Y5278D01*
X24737Y5261D01*
X24684Y5237D01*
X24620Y5214D01*
X24556Y5191D01*
X24474Y5167D01*
X24387Y5144D01*
X24294Y5121D01*
X24189Y5092D01*
X24183D01*
X24160Y5086D01*
X24130Y5080D01*
X24090Y5068D01*
X24043Y5057D01*
X23985Y5039D01*
X23920Y5022D01*
X23856Y5004D01*
X23716Y4958D01*
X23571Y4911D01*
X23431Y4859D01*
X23372Y4829D01*
X23314Y4800D01*
X23308D01*
X23302Y4794D01*
X23268Y4771D01*
X23215Y4736D01*
X23151Y4690D01*
X23081Y4631D01*
X23005Y4561D01*
X22929Y4480D01*
X22865Y4386D01*
X22859Y4375D01*
X22842Y4340D01*
X22813Y4287D01*
X22784Y4211D01*
X22754Y4118D01*
X22725Y4007D01*
X22708Y3885D01*
X22702Y3745D01*
Y3687D01*
X22708Y3658D01*
X22714Y3617D01*
X22725Y3535D01*
X22749Y3430D01*
X22784Y3319D01*
X22836Y3209D01*
X22900Y3092D01*
Y3086D01*
X22912Y3080D01*
X22935Y3045D01*
X22982Y2987D01*
X23040Y2923D01*
X23116Y2847D01*
X23215Y2777D01*
X23320Y2707D01*
X23448Y2643D01*
X23454D01*
X23466Y2637D01*
X23483Y2631D01*
X23512Y2620D01*
X23547Y2608D01*
X23588Y2596D01*
X23635Y2585D01*
X23687Y2573D01*
X23751Y2556D01*
X23816Y2544D01*
X23967Y2521D01*
X24136Y2503D01*
X24323Y2497D01*
X24398D01*
X24451Y2503D01*
X24515Y2509D01*
X24585Y2515D01*
X24667Y2527D01*
X24754Y2544D01*
X24947Y2585D01*
X25046Y2614D01*
X25139Y2643D01*
X25238Y2684D01*
X25331Y2731D01*
X25419Y2783D01*
X25500Y2847D01*
X25506Y2853D01*
X25518Y2865D01*
X25541Y2882D01*
X25565Y2911D01*
X25600Y2952D01*
X25634Y2999D01*
X25675Y3051D01*
X25716Y3110D01*
X25757Y3179D01*
X25798Y3255D01*
X25839Y3343D01*
X25879Y3436D01*
X25908Y3535D01*
X25943Y3646D01*
X25967Y3762D01*
X25984Y3885D01*
X25191Y3961D01*
Y3955D01*
X25185Y3943D01*
Y3920D01*
X25180Y3897D01*
X25156Y3827D01*
X25127Y3739D01*
X25092Y3640D01*
X25040Y3541D01*
X24982Y3453D01*
X24906Y3372D01*
X24894Y3366D01*
X24865Y3343D01*
X24818Y3314D01*
X24748Y3279D01*
X24661Y3244D01*
X24562Y3215D01*
X24445Y3191D01*
X24311Y3185D01*
X24247D01*
X24177Y3197D01*
X24090Y3209D01*
X23996Y3226D01*
X23897Y3255D01*
X23804Y3296D01*
X23722Y3349D01*
X23711Y3354D01*
X23687Y3378D01*
X23658Y3413D01*
X23617Y3459D01*
X23582Y3518D01*
X23547Y3588D01*
X23524Y3658D01*
X23518Y3739D01*
Y3745D01*
Y3762D01*
X23524Y3792D01*
X23530Y3827D01*
X23541Y3862D01*
X23553Y3902D01*
X23576Y3943D01*
X23606Y3984D01*
X23611Y3990D01*
X23623Y4002D01*
X23641Y4019D01*
X23670Y4042D01*
X23711Y4072D01*
X23763Y4101D01*
X23821Y4130D01*
X23897Y4159D01*
X23903D01*
X23926Y4171D01*
X23967Y4182D01*
X23996Y4194D01*
X24031Y4200D01*
X24072Y4211D01*
X24119Y4229D01*
X24171Y4241D01*
X24229Y4258D01*
X24299Y4276D01*
X24375Y4293D01*
X24457Y4316D01*
X24550Y4340D01*
X24556D01*
X24579Y4346D01*
X24614Y4357D01*
X24655Y4369D01*
X24708Y4386D01*
X24772Y4404D01*
X24836Y4427D01*
X24912Y4451D01*
X25063Y4509D01*
X25209Y4579D01*
X25285Y4614D01*
X25349Y4654D01*
X25413Y4695D01*
X25465Y4736D01*
X25471Y4742D01*
X25483Y4754D01*
X25500Y4771D01*
X25524Y4794D01*
X25553Y4829D01*
X25582Y4870D01*
X25617Y4911D01*
X25646Y4964D01*
X25716Y5086D01*
X25774Y5226D01*
X25798Y5302D01*
X25815Y5377D01*
X25827Y5465D01*
X25833Y5552D01*
Y5558D01*
Y5564D01*
Y5582D01*
Y5605D01*
X25821Y5663D01*
X25809Y5739D01*
X25792Y5826D01*
X25763Y5925D01*
X25722Y6030D01*
X25664Y6129D01*
Y6135D01*
X25658Y6141D01*
X25629Y6176D01*
X25594Y6223D01*
X25535Y6281D01*
X25465Y6345D01*
X25378Y6415D01*
X25279Y6479D01*
X25162Y6538D01*
X25156D01*
X25145Y6543D01*
X25127Y6549D01*
X25104Y6561D01*
X25069Y6573D01*
X25034Y6584D01*
X24987Y6596D01*
X24935Y6613D01*
X24818Y6637D01*
X24684Y6660D01*
X24533Y6678D01*
X24363Y6683D01*
D02*
G37*
G36*
X22008Y1615D02*
X20399D01*
X20353Y1609D01*
X20242Y1603D01*
X20119Y1597D01*
X19991Y1580D01*
X19869Y1562D01*
X19758Y1533D01*
X19752D01*
X19740Y1527D01*
X19723Y1522D01*
X19700Y1516D01*
X19630Y1486D01*
X19548Y1446D01*
X19455Y1393D01*
X19350Y1329D01*
X19251Y1253D01*
X19151Y1160D01*
X19146D01*
X19140Y1148D01*
X19111Y1113D01*
X19064Y1055D01*
X19012Y979D01*
X18947Y886D01*
X18883Y775D01*
X18819Y647D01*
X18767Y507D01*
Y501D01*
X18761Y490D01*
X18755Y466D01*
X18743Y437D01*
X18738Y402D01*
X18726Y356D01*
X18714Y303D01*
X18697Y245D01*
X18685Y181D01*
X18673Y105D01*
X18662Y29D01*
X18656Y-58D01*
X18639Y-239D01*
X18633Y-443D01*
Y-525D01*
X18639Y-571D01*
Y-618D01*
X18644Y-676D01*
X18650Y-741D01*
X18662Y-875D01*
X18685Y-1015D01*
X18720Y-1160D01*
X18761Y-1300D01*
Y-1306D01*
X18767Y-1318D01*
X18778Y-1341D01*
X18790Y-1376D01*
X18802Y-1411D01*
X18825Y-1452D01*
X18872Y-1557D01*
X18930Y-1667D01*
X19006Y-1790D01*
X19093Y-1907D01*
X19192Y-2017D01*
X19204Y-2029D01*
X19233Y-2052D01*
X19280Y-2087D01*
X19344Y-2134D01*
X19425Y-2186D01*
X19519Y-2239D01*
X19635Y-2291D01*
X19764Y-2338D01*
X19770D01*
X19775Y-2344D01*
X19793D01*
X19810Y-2350D01*
X19874Y-2361D01*
X19956Y-2379D01*
X20055Y-2396D01*
X20178Y-2408D01*
X20323Y-2414D01*
X20481Y-2420D01*
X22008D01*
Y1615D01*
D02*
G37*
G36*
X16790D02*
X15927D01*
X14307Y-2420D01*
X15187D01*
X15537Y-1504D01*
X17158D01*
X17490Y-2420D01*
X18353D01*
X16790Y1615D01*
D02*
G37*
G36*
X24363Y1691D02*
X24294D01*
X24241Y1685D01*
X24177Y1679D01*
X24101Y1673D01*
X24025Y1661D01*
X23938Y1650D01*
X23751Y1609D01*
X23658Y1580D01*
X23565Y1551D01*
X23471Y1510D01*
X23384Y1463D01*
X23302Y1411D01*
X23227Y1352D01*
X23221Y1347D01*
X23209Y1335D01*
X23192Y1317D01*
X23168Y1294D01*
X23139Y1259D01*
X23104Y1218D01*
X23069Y1172D01*
X23028Y1119D01*
X22994Y1055D01*
X22959Y991D01*
X22923Y915D01*
X22894Y833D01*
X22865Y752D01*
X22842Y659D01*
X22824Y565D01*
X22819Y460D01*
X23635Y431D01*
Y437D01*
Y443D01*
X23646Y484D01*
X23658Y536D01*
X23681Y600D01*
X23711Y676D01*
X23751Y746D01*
X23804Y816D01*
X23862Y874D01*
X23868Y880D01*
X23891Y898D01*
X23932Y921D01*
X23990Y944D01*
X24060Y968D01*
X24148Y991D01*
X24253Y1008D01*
X24375Y1014D01*
X24433D01*
X24498Y1008D01*
X24573Y997D01*
X24661Y979D01*
X24754Y950D01*
X24842Y915D01*
X24923Y863D01*
X24929Y857D01*
X24941Y845D01*
X24964Y828D01*
X24987Y798D01*
X25011Y764D01*
X25034Y717D01*
X25046Y670D01*
X25051Y612D01*
Y606D01*
Y589D01*
X25046Y559D01*
X25034Y530D01*
X25022Y490D01*
X25005Y449D01*
X24976Y408D01*
X24935Y367D01*
X24929Y361D01*
X24900Y344D01*
X24882Y332D01*
X24853Y320D01*
X24824Y303D01*
X24783Y286D01*
X24737Y268D01*
X24684Y245D01*
X24620Y221D01*
X24556Y198D01*
X24474Y175D01*
X24387Y151D01*
X24294Y128D01*
X24189Y99D01*
X24183D01*
X24160Y93D01*
X24130Y87D01*
X24090Y76D01*
X24043Y64D01*
X23985Y46D01*
X23920Y29D01*
X23856Y12D01*
X23716Y-35D01*
X23571Y-82D01*
X23431Y-134D01*
X23372Y-163D01*
X23314Y-193D01*
X23308D01*
X23302Y-198D01*
X23268Y-222D01*
X23215Y-257D01*
X23151Y-303D01*
X23081Y-362D01*
X23005Y-432D01*
X22929Y-513D01*
X22865Y-606D01*
X22859Y-618D01*
X22842Y-653D01*
X22813Y-706D01*
X22784Y-781D01*
X22754Y-875D01*
X22725Y-985D01*
X22708Y-1108D01*
X22702Y-1248D01*
Y-1306D01*
X22708Y-1335D01*
X22714Y-1376D01*
X22725Y-1458D01*
X22749Y-1563D01*
X22784Y-1673D01*
X22836Y-1784D01*
X22900Y-1901D01*
Y-1907D01*
X22912Y-1912D01*
X22935Y-1947D01*
X22982Y-2006D01*
X23040Y-2070D01*
X23116Y-2146D01*
X23215Y-2216D01*
X23320Y-2286D01*
X23448Y-2350D01*
X23454D01*
X23466Y-2355D01*
X23483Y-2361D01*
X23512Y-2373D01*
X23547Y-2385D01*
X23588Y-2396D01*
X23635Y-2408D01*
X23687Y-2420D01*
X23751Y-2437D01*
X23816Y-2449D01*
X23967Y-2472D01*
X24136Y-2490D01*
X24323Y-2495D01*
X24398D01*
X24451Y-2490D01*
X24515Y-2484D01*
X24585Y-2478D01*
X24667Y-2466D01*
X24754Y-2449D01*
X24947Y-2408D01*
X25046Y-2379D01*
X25139Y-2350D01*
X25238Y-2309D01*
X25331Y-2262D01*
X25419Y-2210D01*
X25500Y-2146D01*
X25506Y-2140D01*
X25518Y-2128D01*
X25541Y-2111D01*
X25565Y-2081D01*
X25600Y-2041D01*
X25634Y-1994D01*
X25675Y-1942D01*
X25716Y-1883D01*
X25757Y-1813D01*
X25798Y-1737D01*
X25839Y-1650D01*
X25879Y-1557D01*
X25908Y-1458D01*
X25943Y-1347D01*
X25967Y-1230D01*
X25984Y-1108D01*
X25191Y-1032D01*
Y-1038D01*
X25185Y-1050D01*
Y-1073D01*
X25180Y-1096D01*
X25156Y-1166D01*
X25127Y-1254D01*
X25092Y-1353D01*
X25040Y-1452D01*
X24982Y-1539D01*
X24906Y-1621D01*
X24894Y-1627D01*
X24865Y-1650D01*
X24818Y-1679D01*
X24748Y-1714D01*
X24661Y-1749D01*
X24562Y-1778D01*
X24445Y-1802D01*
X24311Y-1808D01*
X24247D01*
X24177Y-1796D01*
X24090Y-1784D01*
X23996Y-1767D01*
X23897Y-1737D01*
X23804Y-1697D01*
X23722Y-1644D01*
X23711Y-1638D01*
X23687Y-1615D01*
X23658Y-1580D01*
X23617Y-1534D01*
X23582Y-1475D01*
X23547Y-1405D01*
X23524Y-1335D01*
X23518Y-1254D01*
Y-1248D01*
Y-1230D01*
X23524Y-1201D01*
X23530Y-1166D01*
X23541Y-1131D01*
X23553Y-1090D01*
X23576Y-1050D01*
X23606Y-1009D01*
X23611Y-1003D01*
X23623Y-991D01*
X23641Y-974D01*
X23670Y-950D01*
X23711Y-921D01*
X23763Y-892D01*
X23821Y-863D01*
X23897Y-834D01*
X23903D01*
X23926Y-822D01*
X23967Y-810D01*
X23996Y-799D01*
X24031Y-793D01*
X24072Y-781D01*
X24119Y-764D01*
X24171Y-752D01*
X24229Y-735D01*
X24299Y-717D01*
X24375Y-700D01*
X24457Y-676D01*
X24550Y-653D01*
X24556D01*
X24579Y-647D01*
X24614Y-636D01*
X24655Y-624D01*
X24708Y-606D01*
X24772Y-589D01*
X24836Y-566D01*
X24912Y-542D01*
X25063Y-484D01*
X25209Y-414D01*
X25285Y-379D01*
X25349Y-338D01*
X25413Y-298D01*
X25465Y-257D01*
X25471Y-251D01*
X25483Y-239D01*
X25500Y-222D01*
X25524Y-198D01*
X25553Y-163D01*
X25582Y-123D01*
X25617Y-82D01*
X25646Y-29D01*
X25716Y93D01*
X25774Y233D01*
X25798Y309D01*
X25815Y385D01*
X25827Y472D01*
X25833Y559D01*
Y565D01*
Y571D01*
Y589D01*
Y612D01*
X25821Y670D01*
X25809Y746D01*
X25792Y833D01*
X25763Y933D01*
X25722Y1038D01*
X25664Y1137D01*
Y1142D01*
X25658Y1148D01*
X25629Y1183D01*
X25594Y1230D01*
X25535Y1288D01*
X25465Y1352D01*
X25378Y1422D01*
X25279Y1486D01*
X25162Y1545D01*
X25156D01*
X25145Y1551D01*
X25127Y1556D01*
X25104Y1568D01*
X25069Y1580D01*
X25034Y1591D01*
X24987Y1603D01*
X24935Y1621D01*
X24818Y1644D01*
X24684Y1667D01*
X24533Y1685D01*
X24363Y1691D01*
D02*
G37*
G36*
X25984Y-3372D02*
X24375D01*
X24329Y-3378D01*
X24218Y-3384D01*
X24095Y-3390D01*
X23967Y-3407D01*
X23845Y-3425D01*
X23734Y-3454D01*
X23728D01*
X23716Y-3460D01*
X23699Y-3466D01*
X23676Y-3471D01*
X23606Y-3500D01*
X23524Y-3541D01*
X23431Y-3594D01*
X23326Y-3658D01*
X23227Y-3734D01*
X23128Y-3827D01*
X23122D01*
X23116Y-3839D01*
X23087Y-3874D01*
X23040Y-3932D01*
X22988Y-4008D01*
X22923Y-4101D01*
X22859Y-4212D01*
X22795Y-4340D01*
X22743Y-4480D01*
Y-4486D01*
X22737Y-4497D01*
X22731Y-4521D01*
X22719Y-4550D01*
X22714Y-4585D01*
X22702Y-4631D01*
X22690Y-4684D01*
X22673Y-4742D01*
X22661Y-4806D01*
X22649Y-4882D01*
X22638Y-4958D01*
X22632Y-5046D01*
X22614Y-5226D01*
X22609Y-5430D01*
Y-5512D01*
X22614Y-5559D01*
Y-5605D01*
X22620Y-5663D01*
X22626Y-5728D01*
X22638Y-5862D01*
X22661Y-6002D01*
X22696Y-6147D01*
X22737Y-6287D01*
Y-6293D01*
X22743Y-6305D01*
X22754Y-6328D01*
X22766Y-6363D01*
X22778Y-6398D01*
X22801Y-6439D01*
X22848Y-6544D01*
X22906Y-6655D01*
X22982Y-6777D01*
X23069Y-6894D01*
X23168Y-7004D01*
X23180Y-7016D01*
X23209Y-7039D01*
X23256Y-7074D01*
X23320Y-7121D01*
X23402Y-7173D01*
X23495Y-7226D01*
X23611Y-7278D01*
X23740Y-7325D01*
X23745D01*
X23751Y-7331D01*
X23769D01*
X23786Y-7337D01*
X23851Y-7348D01*
X23932Y-7366D01*
X24031Y-7383D01*
X24154Y-7395D01*
X24299Y-7401D01*
X24457Y-7407D01*
X25984D01*
Y-3372D01*
D02*
G37*
G36*
X21944D02*
X21128D01*
Y-7407D01*
X21944D01*
Y-3372D01*
D02*
G37*
G36*
X20347D02*
X18528D01*
X18475Y-3378D01*
X18411D01*
X18347Y-3384D01*
X18271D01*
X18120Y-3401D01*
X17962Y-3419D01*
X17816Y-3448D01*
X17752Y-3466D01*
X17694Y-3483D01*
X17688D01*
X17682Y-3489D01*
X17647Y-3506D01*
X17595Y-3536D01*
X17525Y-3571D01*
X17449Y-3629D01*
X17373Y-3693D01*
X17298Y-3774D01*
X17228Y-3874D01*
Y-3879D01*
X17222Y-3885D01*
X17210Y-3903D01*
X17198Y-3920D01*
X17169Y-3979D01*
X17134Y-4054D01*
X17105Y-4148D01*
X17076Y-4253D01*
X17053Y-4375D01*
X17047Y-4503D01*
Y-4509D01*
Y-4521D01*
Y-4550D01*
X17053Y-4579D01*
Y-4620D01*
X17059Y-4661D01*
X17082Y-4766D01*
X17111Y-4888D01*
X17158Y-5011D01*
X17228Y-5139D01*
X17268Y-5197D01*
X17315Y-5255D01*
X17321Y-5261D01*
X17327Y-5267D01*
X17344Y-5285D01*
X17368Y-5302D01*
X17391Y-5325D01*
X17426Y-5354D01*
X17467Y-5384D01*
X17513Y-5413D01*
X17566Y-5448D01*
X17630Y-5477D01*
X17694Y-5506D01*
X17764Y-5535D01*
X17846Y-5564D01*
X17927Y-5588D01*
X18015Y-5611D01*
X18114Y-5629D01*
X18108D01*
X18102Y-5634D01*
X18067Y-5658D01*
X18021Y-5687D01*
X17962Y-5728D01*
X17892Y-5780D01*
X17822Y-5833D01*
X17747Y-5897D01*
X17682Y-5967D01*
X17676Y-5972D01*
X17647Y-6002D01*
X17612Y-6048D01*
X17560Y-6118D01*
X17490Y-6206D01*
X17455Y-6264D01*
X17414Y-6322D01*
X17368Y-6386D01*
X17321Y-6456D01*
X17268Y-6538D01*
X17216Y-6620D01*
X16720Y-7407D01*
X17700D01*
X18283Y-6532D01*
X18289Y-6526D01*
X18294Y-6509D01*
X18312Y-6486D01*
X18335Y-6456D01*
X18359Y-6421D01*
X18388Y-6375D01*
X18452Y-6281D01*
X18528Y-6177D01*
X18598Y-6083D01*
X18662Y-5996D01*
X18691Y-5967D01*
X18714Y-5937D01*
X18720Y-5932D01*
X18732Y-5920D01*
X18755Y-5897D01*
X18784Y-5867D01*
X18825Y-5844D01*
X18866Y-5815D01*
X18913Y-5792D01*
X18959Y-5768D01*
X18965D01*
X18982Y-5762D01*
X19012Y-5751D01*
X19058Y-5745D01*
X19117Y-5733D01*
X19186Y-5728D01*
X19268Y-5722D01*
X19530D01*
Y-7407D01*
X20347D01*
Y-3372D01*
D02*
G37*
G36*
X14709D02*
X12937D01*
X12832Y-3378D01*
X12715Y-3384D01*
X12599Y-3390D01*
X12488Y-3401D01*
X12389Y-3413D01*
X12377D01*
X12348Y-3419D01*
X12307Y-3430D01*
X12249Y-3448D01*
X12185Y-3471D01*
X12115Y-3500D01*
X12039Y-3536D01*
X11969Y-3582D01*
X11963Y-3588D01*
X11940Y-3605D01*
X11905Y-3635D01*
X11858Y-3670D01*
X11812Y-3722D01*
X11759Y-3780D01*
X11707Y-3844D01*
X11660Y-3920D01*
X11654Y-3932D01*
X11642Y-3955D01*
X11619Y-4002D01*
X11596Y-4060D01*
X11573Y-4130D01*
X11549Y-4206D01*
X11537Y-4299D01*
X11532Y-4392D01*
Y-4398D01*
Y-4404D01*
Y-4439D01*
X11537Y-4492D01*
X11549Y-4562D01*
X11573Y-4643D01*
X11596Y-4731D01*
X11637Y-4818D01*
X11689Y-4911D01*
X11695Y-4923D01*
X11718Y-4952D01*
X11753Y-4993D01*
X11794Y-5046D01*
X11852Y-5098D01*
X11922Y-5162D01*
X12004Y-5215D01*
X12097Y-5267D01*
X12091D01*
X12080Y-5273D01*
X12062Y-5279D01*
X12039Y-5285D01*
X11969Y-5314D01*
X11887Y-5354D01*
X11800Y-5401D01*
X11701Y-5465D01*
X11613Y-5541D01*
X11532Y-5634D01*
X11526Y-5646D01*
X11502Y-5681D01*
X11468Y-5733D01*
X11433Y-5803D01*
X11398Y-5897D01*
X11363Y-5996D01*
X11339Y-6112D01*
X11333Y-6241D01*
Y-6287D01*
X11339Y-6340D01*
X11351Y-6410D01*
X11363Y-6491D01*
X11386Y-6585D01*
X11421Y-6678D01*
X11462Y-6777D01*
X11468Y-6789D01*
X11485Y-6818D01*
X11514Y-6864D01*
X11555Y-6923D01*
X11602Y-6993D01*
X11666Y-7057D01*
X11730Y-7127D01*
X11812Y-7191D01*
X11823Y-7197D01*
X11852Y-7214D01*
X11899Y-7243D01*
X11963Y-7272D01*
X12045Y-7307D01*
X12138Y-7337D01*
X12243Y-7366D01*
X12359Y-7383D01*
X12383D01*
X12406Y-7389D01*
X12465D01*
X12505Y-7395D01*
X12616D01*
X12686Y-7401D01*
X12861D01*
X12960Y-7407D01*
X14709D01*
Y-3372D01*
D02*
G37*
G36*
X15700Y-3302D02*
X15117D01*
X16126Y-7477D01*
X16697D01*
X15700Y-3302D01*
D02*
G37*
G36*
X25984Y-8359D02*
X25104D01*
X24078Y-11344D01*
X23093Y-8359D01*
X22224D01*
X23658Y-12394D01*
X24538D01*
X25984Y-8359D01*
D02*
G37*
G36*
X20073Y-8283D02*
X20003D01*
X19950Y-8289D01*
X19886Y-8295D01*
X19816Y-8307D01*
X19735Y-8318D01*
X19647Y-8336D01*
X19554Y-8359D01*
X19455Y-8388D01*
X19355Y-8423D01*
X19251Y-8470D01*
X19151Y-8517D01*
X19058Y-8575D01*
X18959Y-8645D01*
X18872Y-8721D01*
X18866D01*
X18860Y-8732D01*
X18843Y-8750D01*
X18825Y-8767D01*
X18802Y-8796D01*
X18778Y-8831D01*
X18714Y-8913D01*
X18650Y-9018D01*
X18580Y-9146D01*
X18516Y-9292D01*
X18458Y-9461D01*
X19262Y-9653D01*
Y-9648D01*
X19268Y-9642D01*
Y-9624D01*
X19280Y-9601D01*
X19297Y-9549D01*
X19326Y-9479D01*
X19367Y-9397D01*
X19420Y-9315D01*
X19490Y-9234D01*
X19565Y-9164D01*
X19577Y-9158D01*
X19606Y-9135D01*
X19653Y-9105D01*
X19717Y-9070D01*
X19799Y-9036D01*
X19892Y-9006D01*
X19997Y-8983D01*
X20113Y-8977D01*
X20154D01*
X20189Y-8983D01*
X20224Y-8989D01*
X20271Y-8995D01*
X20370Y-9018D01*
X20487Y-9059D01*
X20609Y-9117D01*
X20673Y-9152D01*
X20731Y-9193D01*
X20790Y-9245D01*
X20842Y-9304D01*
Y-9309D01*
X20854Y-9321D01*
X20865Y-9339D01*
X20883Y-9368D01*
X20906Y-9403D01*
X20930Y-9444D01*
X20953Y-9496D01*
X20976Y-9554D01*
X21005Y-9624D01*
X21029Y-9700D01*
X21052Y-9788D01*
X21075Y-9881D01*
X21093Y-9986D01*
X21104Y-10097D01*
X21110Y-10219D01*
X21116Y-10353D01*
Y-10359D01*
Y-10388D01*
Y-10429D01*
X21110Y-10475D01*
Y-10540D01*
X21099Y-10615D01*
X21093Y-10691D01*
X21081Y-10779D01*
X21046Y-10959D01*
X21000Y-11140D01*
X20970Y-11228D01*
X20930Y-11309D01*
X20889Y-11385D01*
X20842Y-11449D01*
X20836Y-11455D01*
X20831Y-11461D01*
X20813Y-11478D01*
X20790Y-11502D01*
X20731Y-11548D01*
X20650Y-11607D01*
X20551Y-11671D01*
X20428Y-11717D01*
X20288Y-11758D01*
X20212Y-11764D01*
X20131Y-11770D01*
X20102D01*
X20078Y-11764D01*
X20014Y-11758D01*
X19939Y-11746D01*
X19857Y-11717D01*
X19764Y-11682D01*
X19670Y-11636D01*
X19577Y-11566D01*
X19565Y-11554D01*
X19536Y-11525D01*
X19496Y-11478D01*
X19449Y-11408D01*
X19390Y-11315D01*
X19338Y-11204D01*
X19286Y-11070D01*
X19239Y-10913D01*
X18446Y-11158D01*
Y-11163D01*
X18452Y-11187D01*
X18464Y-11222D01*
X18481Y-11268D01*
X18504Y-11321D01*
X18528Y-11385D01*
X18557Y-11455D01*
X18592Y-11531D01*
X18673Y-11688D01*
X18778Y-11851D01*
X18907Y-12009D01*
X18977Y-12079D01*
X19052Y-12143D01*
X19058Y-12149D01*
X19070Y-12155D01*
X19093Y-12172D01*
X19128Y-12195D01*
X19169Y-12219D01*
X19221Y-12242D01*
X19280Y-12271D01*
X19344Y-12300D01*
X19420Y-12335D01*
X19501Y-12364D01*
X19589Y-12388D01*
X19682Y-12411D01*
X19781Y-12434D01*
X19892Y-12452D01*
X20003Y-12458D01*
X20125Y-12464D01*
X20160D01*
X20201Y-12458D01*
X20259Y-12452D01*
X20323Y-12446D01*
X20405Y-12434D01*
X20492Y-12417D01*
X20592Y-12394D01*
X20691Y-12364D01*
X20796Y-12329D01*
X20906Y-12283D01*
X21017Y-12230D01*
X21128Y-12172D01*
X21239Y-12096D01*
X21344Y-12015D01*
X21443Y-11915D01*
X21449Y-11910D01*
X21466Y-11892D01*
X21489Y-11857D01*
X21524Y-11816D01*
X21559Y-11758D01*
X21606Y-11694D01*
X21653Y-11612D01*
X21699Y-11519D01*
X21746Y-11420D01*
X21792Y-11309D01*
X21839Y-11181D01*
X21874Y-11047D01*
X21909Y-10907D01*
X21932Y-10750D01*
X21950Y-10586D01*
X21956Y-10411D01*
Y-10365D01*
X21950Y-10312D01*
Y-10242D01*
X21938Y-10161D01*
X21927Y-10062D01*
X21915Y-9957D01*
X21892Y-9834D01*
X21862Y-9712D01*
X21827Y-9584D01*
X21787Y-9455D01*
X21734Y-9321D01*
X21676Y-9193D01*
X21606Y-9070D01*
X21530Y-8954D01*
X21437Y-8843D01*
X21431Y-8837D01*
X21414Y-8820D01*
X21384Y-8791D01*
X21344Y-8756D01*
X21291Y-8715D01*
X21227Y-8668D01*
X21157Y-8616D01*
X21070Y-8563D01*
X20976Y-8511D01*
X20877Y-8458D01*
X20761Y-8412D01*
X20644Y-8371D01*
X20510Y-8336D01*
X20376Y-8307D01*
X20224Y-8289D01*
X20073Y-8283D01*
D02*
G37*
G36*
X16003D02*
X15933D01*
X15881Y-8289D01*
X15817Y-8295D01*
X15747Y-8307D01*
X15665Y-8318D01*
X15578Y-8336D01*
X15484Y-8359D01*
X15385Y-8388D01*
X15286Y-8423D01*
X15181Y-8470D01*
X15082Y-8517D01*
X14989Y-8575D01*
X14890Y-8645D01*
X14802Y-8721D01*
X14796D01*
X14791Y-8732D01*
X14773Y-8750D01*
X14756Y-8767D01*
X14732Y-8796D01*
X14709Y-8831D01*
X14645Y-8913D01*
X14581Y-9018D01*
X14511Y-9146D01*
X14447Y-9292D01*
X14388Y-9461D01*
X15193Y-9653D01*
Y-9648D01*
X15199Y-9642D01*
Y-9624D01*
X15210Y-9601D01*
X15228Y-9549D01*
X15257Y-9479D01*
X15298Y-9397D01*
X15350Y-9315D01*
X15420Y-9234D01*
X15496Y-9164D01*
X15508Y-9158D01*
X15537Y-9135D01*
X15584Y-9105D01*
X15648Y-9070D01*
X15729Y-9036D01*
X15823Y-9006D01*
X15927Y-8983D01*
X16044Y-8977D01*
X16085D01*
X16120Y-8983D01*
X16155Y-8989D01*
X16202Y-8995D01*
X16301Y-9018D01*
X16417Y-9059D01*
X16540Y-9117D01*
X16604Y-9152D01*
X16662Y-9193D01*
X16720Y-9245D01*
X16773Y-9304D01*
Y-9309D01*
X16784Y-9321D01*
X16796Y-9339D01*
X16814Y-9368D01*
X16837Y-9403D01*
X16860Y-9444D01*
X16884Y-9496D01*
X16907Y-9554D01*
X16936Y-9624D01*
X16959Y-9700D01*
X16983Y-9788D01*
X17006Y-9881D01*
X17023Y-9986D01*
X17035Y-10097D01*
X17041Y-10219D01*
X17047Y-10353D01*
Y-10359D01*
Y-10388D01*
Y-10429D01*
X17041Y-10475D01*
Y-10540D01*
X17029Y-10615D01*
X17023Y-10691D01*
X17012Y-10779D01*
X16977Y-10959D01*
X16930Y-11140D01*
X16901Y-11228D01*
X16860Y-11309D01*
X16819Y-11385D01*
X16773Y-11449D01*
X16767Y-11455D01*
X16761Y-11461D01*
X16744Y-11478D01*
X16720Y-11502D01*
X16662Y-11548D01*
X16580Y-11607D01*
X16481Y-11671D01*
X16359Y-11717D01*
X16219Y-11758D01*
X16143Y-11764D01*
X16062Y-11770D01*
X16032D01*
X16009Y-11764D01*
X15945Y-11758D01*
X15869Y-11746D01*
X15788Y-11717D01*
X15694Y-11682D01*
X15601Y-11636D01*
X15508Y-11566D01*
X15496Y-11554D01*
X15467Y-11525D01*
X15426Y-11478D01*
X15380Y-11408D01*
X15321Y-11315D01*
X15269Y-11204D01*
X15216Y-11070D01*
X15170Y-10913D01*
X14377Y-11158D01*
Y-11163D01*
X14383Y-11187D01*
X14394Y-11222D01*
X14412Y-11268D01*
X14435Y-11321D01*
X14458Y-11385D01*
X14488Y-11455D01*
X14523Y-11531D01*
X14604Y-11688D01*
X14709Y-11851D01*
X14837Y-12009D01*
X14907Y-12079D01*
X14983Y-12143D01*
X14989Y-12149D01*
X15000Y-12155D01*
X15024Y-12172D01*
X15059Y-12195D01*
X15100Y-12219D01*
X15152Y-12242D01*
X15210Y-12271D01*
X15274Y-12300D01*
X15350Y-12335D01*
X15432Y-12364D01*
X15519Y-12388D01*
X15613Y-12411D01*
X15712Y-12434D01*
X15823Y-12452D01*
X15933Y-12458D01*
X16056Y-12464D01*
X16091D01*
X16131Y-12458D01*
X16190Y-12452D01*
X16254Y-12446D01*
X16336Y-12434D01*
X16423Y-12417D01*
X16522Y-12394D01*
X16621Y-12364D01*
X16726Y-12329D01*
X16837Y-12283D01*
X16948Y-12230D01*
X17059Y-12172D01*
X17169Y-12096D01*
X17274Y-12015D01*
X17373Y-11915D01*
X17379Y-11910D01*
X17397Y-11892D01*
X17420Y-11857D01*
X17455Y-11816D01*
X17490Y-11758D01*
X17537Y-11694D01*
X17583Y-11612D01*
X17630Y-11519D01*
X17676Y-11420D01*
X17723Y-11309D01*
X17770Y-11181D01*
X17805Y-11047D01*
X17840Y-10907D01*
X17863Y-10750D01*
X17880Y-10586D01*
X17886Y-10411D01*
Y-10365D01*
X17880Y-10312D01*
Y-10242D01*
X17869Y-10161D01*
X17857Y-10062D01*
X17846Y-9957D01*
X17822Y-9834D01*
X17793Y-9712D01*
X17758Y-9584D01*
X17717Y-9455D01*
X17665Y-9321D01*
X17606Y-9193D01*
X17537Y-9070D01*
X17461Y-8954D01*
X17368Y-8843D01*
X17362Y-8837D01*
X17344Y-8820D01*
X17315Y-8791D01*
X17274Y-8756D01*
X17222Y-8715D01*
X17158Y-8668D01*
X17088Y-8616D01*
X17000Y-8563D01*
X16907Y-8511D01*
X16808Y-8458D01*
X16691Y-8412D01*
X16575Y-8371D01*
X16441Y-8336D01*
X16307Y-8307D01*
X16155Y-8289D01*
X16003Y-8283D01*
D02*
G37*
%LPD*%
G36*
X25168Y9770D02*
X24608D01*
X24568Y9776D01*
X24463D01*
X24358Y9781D01*
X24253Y9793D01*
X24160Y9811D01*
X24119Y9816D01*
X24084Y9828D01*
X24078Y9834D01*
X24055Y9840D01*
X24025Y9857D01*
X23990Y9875D01*
X23950Y9904D01*
X23909Y9939D01*
X23862Y9980D01*
X23827Y10026D01*
X23821Y10032D01*
X23810Y10050D01*
X23798Y10079D01*
X23780Y10120D01*
X23763Y10166D01*
X23745Y10219D01*
X23740Y10277D01*
X23734Y10341D01*
Y10353D01*
Y10376D01*
X23740Y10417D01*
X23751Y10469D01*
X23769Y10528D01*
X23792Y10592D01*
X23821Y10650D01*
X23868Y10708D01*
X23874Y10714D01*
X23891Y10732D01*
X23920Y10755D01*
X23955Y10784D01*
X24002Y10819D01*
X24060Y10848D01*
X24125Y10872D01*
X24194Y10889D01*
X24200D01*
X24224Y10895D01*
X24264Y10901D01*
X24323Y10907D01*
X24398D01*
X24451Y10912D01*
X24503D01*
X24562Y10918D01*
X25168D01*
Y9770D01*
D02*
G37*
G36*
X10861Y9163D02*
X9748D01*
X10313Y10662D01*
X10861Y9163D01*
D02*
G37*
G36*
X16131Y10977D02*
X16178Y10971D01*
X16225Y10965D01*
X16341Y10942D01*
X16470Y10895D01*
X16540Y10872D01*
X16610Y10837D01*
X16674Y10796D01*
X16744Y10749D01*
X16808Y10697D01*
X16866Y10633D01*
X16872Y10627D01*
X16878Y10615D01*
X16895Y10598D01*
X16913Y10568D01*
X16936Y10528D01*
X16959Y10487D01*
X16989Y10434D01*
X17018Y10370D01*
X17047Y10300D01*
X17076Y10225D01*
X17099Y10137D01*
X17123Y10044D01*
X17140Y9939D01*
X17158Y9828D01*
X17164Y9711D01*
X17169Y9583D01*
Y9577D01*
Y9554D01*
Y9519D01*
X17164Y9472D01*
X17158Y9414D01*
X17152Y9344D01*
X17140Y9274D01*
X17129Y9193D01*
X17094Y9024D01*
X17035Y8854D01*
X17000Y8767D01*
X16959Y8685D01*
X16907Y8610D01*
X16854Y8540D01*
X16849Y8534D01*
X16837Y8522D01*
X16819Y8505D01*
X16796Y8487D01*
X16767Y8458D01*
X16726Y8429D01*
X16685Y8394D01*
X16633Y8365D01*
X16522Y8295D01*
X16382Y8242D01*
X16307Y8219D01*
X16225Y8202D01*
X16137Y8190D01*
X16050Y8184D01*
X16003D01*
X15968Y8190D01*
X15927Y8196D01*
X15881Y8202D01*
X15770Y8231D01*
X15642Y8271D01*
X15578Y8301D01*
X15508Y8330D01*
X15444Y8371D01*
X15374Y8417D01*
X15310Y8470D01*
X15251Y8534D01*
X15245Y8540D01*
X15240Y8551D01*
X15222Y8569D01*
X15205Y8598D01*
X15175Y8639D01*
X15152Y8685D01*
X15123Y8738D01*
X15094Y8802D01*
X15065Y8872D01*
X15035Y8948D01*
X15006Y9035D01*
X14983Y9134D01*
X14965Y9233D01*
X14948Y9344D01*
X14942Y9467D01*
X14936Y9595D01*
Y9601D01*
Y9624D01*
Y9659D01*
X14942Y9711D01*
X14948Y9770D01*
X14954Y9834D01*
X14960Y9910D01*
X14977Y9985D01*
X15012Y10154D01*
X15065Y10329D01*
X15100Y10417D01*
X15141Y10493D01*
X15193Y10568D01*
X15245Y10638D01*
X15251Y10644D01*
X15257Y10656D01*
X15274Y10668D01*
X15298Y10691D01*
X15333Y10720D01*
X15368Y10749D01*
X15409Y10778D01*
X15461Y10813D01*
X15514Y10842D01*
X15578Y10872D01*
X15712Y10930D01*
X15788Y10953D01*
X15869Y10965D01*
X15957Y10977D01*
X16050Y10982D01*
X16097D01*
X16131Y10977D01*
D02*
G37*
G36*
X21192Y-1737D02*
X20475D01*
X20399Y-1732D01*
X20317D01*
X20236Y-1720D01*
X20160Y-1714D01*
X20096Y-1702D01*
X20084D01*
X20061Y-1691D01*
X20026Y-1679D01*
X19979Y-1662D01*
X19927Y-1638D01*
X19874Y-1609D01*
X19822Y-1574D01*
X19770Y-1534D01*
X19764Y-1528D01*
X19746Y-1510D01*
X19723Y-1481D01*
X19694Y-1440D01*
X19665Y-1388D01*
X19624Y-1324D01*
X19595Y-1242D01*
X19560Y-1149D01*
Y-1143D01*
X19554Y-1137D01*
Y-1120D01*
X19548Y-1096D01*
X19536Y-1073D01*
X19530Y-1038D01*
X19513Y-950D01*
X19501Y-845D01*
X19484Y-723D01*
X19478Y-571D01*
X19472Y-408D01*
Y-402D01*
Y-385D01*
Y-362D01*
Y-332D01*
Y-292D01*
X19478Y-245D01*
X19484Y-146D01*
X19496Y-29D01*
X19507Y93D01*
X19530Y204D01*
X19560Y309D01*
Y315D01*
X19565Y320D01*
X19577Y350D01*
X19595Y396D01*
X19618Y455D01*
X19653Y513D01*
X19694Y577D01*
X19740Y641D01*
X19793Y699D01*
X19799Y705D01*
X19816Y723D01*
X19851Y746D01*
X19892Y775D01*
X19950Y810D01*
X20014Y839D01*
X20084Y869D01*
X20166Y892D01*
X20172D01*
X20201Y898D01*
X20247Y903D01*
X20312Y915D01*
X20353D01*
X20405Y921D01*
X20457D01*
X20516Y927D01*
X20586D01*
X20662Y933D01*
X21192D01*
Y-1737D01*
D02*
G37*
G36*
X16913Y-822D02*
X15799D01*
X16365Y676D01*
X16913Y-822D01*
D02*
G37*
G36*
X25168Y-6724D02*
X24451D01*
X24375Y-6719D01*
X24294D01*
X24212Y-6707D01*
X24136Y-6701D01*
X24072Y-6690D01*
X24060D01*
X24037Y-6678D01*
X24002Y-6666D01*
X23955Y-6649D01*
X23903Y-6625D01*
X23851Y-6596D01*
X23798Y-6561D01*
X23745Y-6520D01*
X23740Y-6515D01*
X23722Y-6497D01*
X23699Y-6468D01*
X23670Y-6427D01*
X23641Y-6375D01*
X23600Y-6311D01*
X23571Y-6229D01*
X23536Y-6136D01*
Y-6130D01*
X23530Y-6124D01*
Y-6106D01*
X23524Y-6083D01*
X23512Y-6060D01*
X23506Y-6025D01*
X23489Y-5937D01*
X23477Y-5833D01*
X23460Y-5710D01*
X23454Y-5559D01*
X23448Y-5395D01*
Y-5389D01*
Y-5372D01*
Y-5349D01*
Y-5319D01*
Y-5279D01*
X23454Y-5232D01*
X23460Y-5133D01*
X23471Y-5016D01*
X23483Y-4894D01*
X23506Y-4783D01*
X23536Y-4678D01*
Y-4672D01*
X23541Y-4667D01*
X23553Y-4637D01*
X23571Y-4591D01*
X23594Y-4532D01*
X23629Y-4474D01*
X23670Y-4410D01*
X23716Y-4346D01*
X23769Y-4288D01*
X23775Y-4282D01*
X23792Y-4264D01*
X23827Y-4241D01*
X23868Y-4212D01*
X23926Y-4177D01*
X23990Y-4148D01*
X24060Y-4118D01*
X24142Y-4095D01*
X24148D01*
X24177Y-4089D01*
X24224Y-4084D01*
X24288Y-4072D01*
X24329D01*
X24381Y-4066D01*
X24433D01*
X24492Y-4060D01*
X24562D01*
X24637Y-4054D01*
X25168D01*
Y-6724D01*
D02*
G37*
G36*
X19530Y-5080D02*
X18738D01*
X18621Y-5075D01*
X18498Y-5069D01*
X18376Y-5063D01*
X18324Y-5057D01*
X18277Y-5051D01*
X18230Y-5040D01*
X18201Y-5034D01*
X18195D01*
X18178Y-5022D01*
X18149Y-5011D01*
X18120Y-4993D01*
X18044Y-4941D01*
X18009Y-4905D01*
X17974Y-4865D01*
X17968Y-4859D01*
X17962Y-4841D01*
X17945Y-4818D01*
X17927Y-4783D01*
X17916Y-4736D01*
X17898Y-4684D01*
X17892Y-4626D01*
X17886Y-4562D01*
Y-4550D01*
Y-4527D01*
X17892Y-4492D01*
X17898Y-4445D01*
X17916Y-4392D01*
X17933Y-4340D01*
X17962Y-4282D01*
X17997Y-4235D01*
X18003Y-4229D01*
X18015Y-4212D01*
X18044Y-4194D01*
X18079Y-4165D01*
X18120Y-4136D01*
X18172Y-4113D01*
X18236Y-4089D01*
X18306Y-4072D01*
X18312D01*
X18329Y-4066D01*
X18364D01*
X18417Y-4060D01*
X18545D01*
X18598Y-4054D01*
X19530D01*
Y-5080D01*
D02*
G37*
G36*
X13893Y-4975D02*
X13112D01*
X13013Y-4970D01*
X12832D01*
X12797Y-4964D01*
X12762D01*
X12739Y-4958D01*
X12704Y-4952D01*
X12651Y-4935D01*
X12599Y-4917D01*
X12546Y-4894D01*
X12494Y-4865D01*
X12447Y-4824D01*
X12441Y-4818D01*
X12430Y-4801D01*
X12406Y-4777D01*
X12383Y-4736D01*
X12365Y-4690D01*
X12342Y-4637D01*
X12330Y-4573D01*
X12325Y-4503D01*
Y-4497D01*
Y-4474D01*
X12330Y-4439D01*
X12336Y-4392D01*
X12348Y-4346D01*
X12371Y-4299D01*
X12394Y-4247D01*
X12430Y-4200D01*
X12435Y-4194D01*
X12447Y-4183D01*
X12476Y-4159D01*
X12505Y-4136D01*
X12552Y-4113D01*
X12604Y-4089D01*
X12668Y-4072D01*
X12739Y-4060D01*
X12744D01*
X12768Y-4054D01*
X12832D01*
X12867Y-4048D01*
X13018D01*
X13082Y-4043D01*
X13893D01*
Y-4975D01*
D02*
G37*
G36*
Y-6724D02*
X12995D01*
X12908Y-6719D01*
X12814D01*
X12721Y-6713D01*
X12645Y-6707D01*
X12610D01*
X12587Y-6701D01*
X12581D01*
X12558Y-6695D01*
X12523Y-6684D01*
X12482Y-6672D01*
X12435Y-6649D01*
X12383Y-6620D01*
X12336Y-6585D01*
X12290Y-6544D01*
X12284Y-6538D01*
X12272Y-6520D01*
X12255Y-6491D01*
X12231Y-6451D01*
X12208Y-6404D01*
X12190Y-6346D01*
X12179Y-6276D01*
X12173Y-6200D01*
Y-6194D01*
Y-6171D01*
X12179Y-6136D01*
X12185Y-6095D01*
X12196Y-6042D01*
X12214Y-5996D01*
X12237Y-5943D01*
X12266Y-5891D01*
X12272Y-5885D01*
X12284Y-5867D01*
X12301Y-5844D01*
X12330Y-5821D01*
X12365Y-5786D01*
X12412Y-5757D01*
X12465Y-5728D01*
X12523Y-5704D01*
X12529D01*
X12558Y-5693D01*
X12604Y-5687D01*
X12633Y-5681D01*
X12674Y-5675D01*
X12715Y-5669D01*
X12768Y-5663D01*
X12826Y-5658D01*
X12896D01*
X12966Y-5652D01*
X13047Y-5646D01*
X13893D01*
Y-6724D01*
D02*
G37*
%LPC*%
G36*
X16142Y23549D02*
X15158D01*
X13073Y20152D01*
Y23549D01*
X12132D01*
Y18504D01*
X13153D01*
X15201Y21828D01*
Y18504D01*
X16142D01*
Y23549D01*
D02*
G37*
G36*
X-22864Y-3360D02*
X-23680D01*
Y-4946D01*
X-25272D01*
Y-3360D01*
X-26088D01*
Y-7395D01*
X-25272D01*
Y-5628D01*
X-23680D01*
Y-7395D01*
X-22864D01*
Y-3360D01*
D02*
G37*
G36*
X-2179D02*
X-2996D01*
Y-5553D01*
Y-5558D01*
Y-5576D01*
Y-5599D01*
Y-5634D01*
Y-5681D01*
Y-5727D01*
X-3001Y-5832D01*
Y-5949D01*
X-3007Y-6060D01*
X-3013Y-6112D01*
Y-6159D01*
X-3019Y-6194D01*
X-3025Y-6229D01*
Y-6240D01*
X-3036Y-6270D01*
X-3054Y-6316D01*
X-3077Y-6374D01*
X-3106Y-6439D01*
X-3153Y-6503D01*
X-3205Y-6573D01*
X-3270Y-6631D01*
X-3281Y-6637D01*
X-3305Y-6654D01*
X-3351Y-6678D01*
X-3410Y-6701D01*
X-3491Y-6730D01*
X-3584Y-6753D01*
X-3689Y-6771D01*
X-3812Y-6777D01*
X-3870D01*
X-3928Y-6771D01*
X-4004Y-6759D01*
X-4092Y-6742D01*
X-4173Y-6718D01*
X-4261Y-6684D01*
X-4331Y-6637D01*
X-4337Y-6631D01*
X-4360Y-6614D01*
X-4389Y-6584D01*
X-4424Y-6544D01*
X-4459Y-6491D01*
X-4494Y-6433D01*
X-4523Y-6369D01*
X-4541Y-6293D01*
Y-6281D01*
X-4546Y-6252D01*
X-4552Y-6200D01*
X-4564Y-6130D01*
Y-6083D01*
X-4570Y-6031D01*
Y-5972D01*
X-4575Y-5914D01*
Y-5844D01*
X-4581Y-5768D01*
Y-5687D01*
Y-5599D01*
Y-3360D01*
X-5398D01*
Y-5663D01*
X-5392Y-5733D01*
Y-5809D01*
Y-5885D01*
X-5380Y-6054D01*
X-5368Y-6229D01*
X-5363Y-6305D01*
X-5351Y-6380D01*
X-5339Y-6450D01*
X-5328Y-6514D01*
Y-6520D01*
X-5322Y-6526D01*
Y-6544D01*
X-5316Y-6561D01*
X-5298Y-6619D01*
X-5275Y-6689D01*
X-5240Y-6771D01*
X-5199Y-6853D01*
X-5147Y-6940D01*
X-5083Y-7022D01*
X-5077Y-7033D01*
X-5054Y-7057D01*
X-5013Y-7092D01*
X-4960Y-7138D01*
X-4890Y-7191D01*
X-4809Y-7243D01*
X-4715Y-7301D01*
X-4611Y-7348D01*
X-4605D01*
X-4599Y-7354D01*
X-4581Y-7360D01*
X-4558Y-7366D01*
X-4529Y-7377D01*
X-4494Y-7389D01*
X-4447Y-7401D01*
X-4401Y-7406D01*
X-4290Y-7430D01*
X-4156Y-7453D01*
X-4004Y-7465D01*
X-3835Y-7471D01*
X-3742D01*
X-3689Y-7465D01*
X-3637D01*
X-3573Y-7459D01*
X-3509Y-7453D01*
X-3369Y-7441D01*
X-3223Y-7418D01*
X-3077Y-7383D01*
X-3013Y-7366D01*
X-2955Y-7342D01*
X-2949D01*
X-2943Y-7337D01*
X-2908Y-7319D01*
X-2850Y-7290D01*
X-2786Y-7249D01*
X-2710Y-7197D01*
X-2628Y-7138D01*
X-2552Y-7068D01*
X-2482Y-6993D01*
X-2477Y-6981D01*
X-2453Y-6957D01*
X-2424Y-6911D01*
X-2389Y-6853D01*
X-2354Y-6788D01*
X-2314Y-6713D01*
X-2284Y-6631D01*
X-2255Y-6544D01*
Y-6538D01*
X-2249Y-6526D01*
Y-6509D01*
X-2244Y-6480D01*
X-2238Y-6444D01*
X-2232Y-6398D01*
X-2226Y-6345D01*
X-2220Y-6287D01*
X-2208Y-6217D01*
X-2203Y-6141D01*
X-2197Y-6060D01*
X-2191Y-5966D01*
X-2185Y-5867D01*
Y-5757D01*
X-2179Y-5640D01*
Y-3360D01*
D02*
G37*
G36*
X-15023D02*
X-15839D01*
Y-5553D01*
Y-5558D01*
Y-5576D01*
Y-5599D01*
Y-5634D01*
Y-5681D01*
Y-5727D01*
X-15845Y-5832D01*
Y-5949D01*
X-15851Y-6060D01*
X-15856Y-6112D01*
Y-6159D01*
X-15862Y-6194D01*
X-15868Y-6229D01*
Y-6240D01*
X-15880Y-6270D01*
X-15897Y-6316D01*
X-15921Y-6374D01*
X-15950Y-6439D01*
X-15996Y-6503D01*
X-16049Y-6573D01*
X-16113Y-6631D01*
X-16125Y-6637D01*
X-16148Y-6654D01*
X-16195Y-6678D01*
X-16253Y-6701D01*
X-16335Y-6730D01*
X-16428Y-6753D01*
X-16533Y-6771D01*
X-16655Y-6777D01*
X-16714D01*
X-16772Y-6771D01*
X-16848Y-6759D01*
X-16935Y-6742D01*
X-17017Y-6718D01*
X-17104Y-6684D01*
X-17174Y-6637D01*
X-17180Y-6631D01*
X-17203Y-6614D01*
X-17232Y-6584D01*
X-17267Y-6544D01*
X-17302Y-6491D01*
X-17337Y-6433D01*
X-17367Y-6369D01*
X-17384Y-6293D01*
Y-6281D01*
X-17390Y-6252D01*
X-17396Y-6200D01*
X-17407Y-6130D01*
Y-6083D01*
X-17413Y-6031D01*
Y-5972D01*
X-17419Y-5914D01*
Y-5844D01*
X-17425Y-5768D01*
Y-5687D01*
Y-5599D01*
Y-3360D01*
X-18241D01*
Y-5663D01*
X-18235Y-5733D01*
Y-5809D01*
Y-5885D01*
X-18224Y-6054D01*
X-18212Y-6229D01*
X-18206Y-6305D01*
X-18194Y-6380D01*
X-18183Y-6450D01*
X-18171Y-6514D01*
Y-6520D01*
X-18165Y-6526D01*
Y-6544D01*
X-18159Y-6561D01*
X-18142Y-6619D01*
X-18119Y-6689D01*
X-18084Y-6771D01*
X-18043Y-6853D01*
X-17990Y-6940D01*
X-17926Y-7022D01*
X-17920Y-7033D01*
X-17897Y-7057D01*
X-17856Y-7092D01*
X-17804Y-7138D01*
X-17734Y-7191D01*
X-17652Y-7243D01*
X-17559Y-7301D01*
X-17454Y-7348D01*
X-17448D01*
X-17442Y-7354D01*
X-17425Y-7360D01*
X-17402Y-7366D01*
X-17372Y-7377D01*
X-17337Y-7389D01*
X-17291Y-7401D01*
X-17244Y-7406D01*
X-17133Y-7430D01*
X-16999Y-7453D01*
X-16848Y-7465D01*
X-16679Y-7471D01*
X-16585D01*
X-16533Y-7465D01*
X-16480D01*
X-16416Y-7459D01*
X-16352Y-7453D01*
X-16212Y-7441D01*
X-16066Y-7418D01*
X-15921Y-7383D01*
X-15856Y-7366D01*
X-15798Y-7342D01*
X-15792D01*
X-15787Y-7337D01*
X-15752Y-7319D01*
X-15693Y-7290D01*
X-15629Y-7249D01*
X-15553Y-7197D01*
X-15472Y-7138D01*
X-15396Y-7068D01*
X-15326Y-6993D01*
X-15320Y-6981D01*
X-15297Y-6957D01*
X-15268Y-6911D01*
X-15233Y-6853D01*
X-15198Y-6788D01*
X-15157Y-6713D01*
X-15128Y-6631D01*
X-15099Y-6544D01*
Y-6538D01*
X-15093Y-6526D01*
Y-6509D01*
X-15087Y-6480D01*
X-15081Y-6444D01*
X-15075Y-6398D01*
X-15069Y-6345D01*
X-15064Y-6287D01*
X-15052Y-6217D01*
X-15046Y-6141D01*
X-15040Y-6060D01*
X-15034Y-5966D01*
X-15029Y-5867D01*
Y-5757D01*
X-15023Y-5640D01*
Y-3360D01*
D02*
G37*
G36*
X-5975D02*
X-9175D01*
Y-4042D01*
X-7986D01*
Y-7395D01*
X-7170D01*
Y-4042D01*
X-5975D01*
Y-3360D01*
D02*
G37*
G36*
X-11274D02*
X-12761D01*
X-12825Y-3366D01*
X-12977D01*
X-13140Y-3378D01*
X-13303Y-3390D01*
X-13373Y-3395D01*
X-13443Y-3401D01*
X-13501Y-3413D01*
X-13548Y-3424D01*
X-13554D01*
X-13565Y-3430D01*
X-13583Y-3436D01*
X-13606Y-3442D01*
X-13670Y-3471D01*
X-13752Y-3506D01*
X-13839Y-3559D01*
X-13938Y-3629D01*
X-14032Y-3716D01*
X-14125Y-3821D01*
Y-3827D01*
X-14137Y-3833D01*
X-14148Y-3850D01*
X-14160Y-3873D01*
X-14183Y-3908D01*
X-14201Y-3943D01*
X-14224Y-3984D01*
X-14247Y-4031D01*
X-14288Y-4148D01*
X-14329Y-4276D01*
X-14352Y-4433D01*
X-14364Y-4602D01*
Y-4666D01*
X-14358Y-4696D01*
Y-4736D01*
X-14347Y-4818D01*
X-14329Y-4917D01*
X-14306Y-5028D01*
X-14271Y-5133D01*
X-14224Y-5232D01*
X-14218Y-5243D01*
X-14201Y-5273D01*
X-14172Y-5319D01*
X-14131Y-5378D01*
X-14084Y-5436D01*
X-14020Y-5506D01*
X-13956Y-5570D01*
X-13880Y-5628D01*
X-13869Y-5634D01*
X-13845Y-5652D01*
X-13804Y-5675D01*
X-13752Y-5704D01*
X-13688Y-5739D01*
X-13618Y-5768D01*
X-13542Y-5797D01*
X-13460Y-5821D01*
X-13449D01*
X-13431Y-5827D01*
X-13408D01*
X-13379Y-5832D01*
X-13338Y-5838D01*
X-13297Y-5844D01*
X-13245D01*
X-13192Y-5850D01*
X-13128Y-5856D01*
X-13058Y-5861D01*
X-12982Y-5867D01*
X-12901D01*
X-12813Y-5873D01*
X-12090D01*
Y-7395D01*
X-11274D01*
Y-3360D01*
D02*
G37*
G36*
X-10283Y-3291D02*
X-10866D01*
X-9858Y-7465D01*
X-9286D01*
X-10283Y-3291D01*
D02*
G37*
G36*
X415Y-3285D02*
X374D01*
X328Y-3291D01*
X269D01*
X193Y-3302D01*
X106Y-3314D01*
X7Y-3331D01*
X-98Y-3355D01*
X-209Y-3384D01*
X-325Y-3419D01*
X-442Y-3465D01*
X-564Y-3518D01*
X-681Y-3582D01*
X-798Y-3658D01*
X-908Y-3745D01*
X-1013Y-3844D01*
X-1019Y-3850D01*
X-1037Y-3868D01*
X-1066Y-3903D01*
X-1095Y-3943D01*
X-1136Y-4002D01*
X-1182Y-4072D01*
X-1229Y-4153D01*
X-1282Y-4247D01*
X-1334Y-4346D01*
X-1381Y-4462D01*
X-1427Y-4591D01*
X-1468Y-4725D01*
X-1503Y-4876D01*
X-1526Y-5034D01*
X-1544Y-5203D01*
X-1550Y-5383D01*
Y-5424D01*
X-1544Y-5477D01*
Y-5547D01*
X-1532Y-5628D01*
X-1521Y-5722D01*
X-1503Y-5832D01*
X-1486Y-5943D01*
X-1457Y-6066D01*
X-1421Y-6194D01*
X-1375Y-6322D01*
X-1322Y-6450D01*
X-1264Y-6573D01*
X-1188Y-6695D01*
X-1107Y-6812D01*
X-1013Y-6922D01*
X-1008Y-6928D01*
X-990Y-6946D01*
X-961Y-6975D01*
X-914Y-7010D01*
X-862Y-7051D01*
X-798Y-7097D01*
X-722Y-7144D01*
X-640Y-7197D01*
X-541Y-7249D01*
X-436Y-7296D01*
X-320Y-7342D01*
X-191Y-7383D01*
X-57Y-7418D01*
X88Y-7447D01*
X240Y-7465D01*
X403Y-7471D01*
X444D01*
X491Y-7465D01*
X549Y-7459D01*
X625Y-7453D01*
X712Y-7441D01*
X811Y-7424D01*
X916Y-7401D01*
X1033Y-7372D01*
X1144Y-7337D01*
X1266Y-7290D01*
X1383Y-7237D01*
X1505Y-7179D01*
X1616Y-7103D01*
X1727Y-7022D01*
X1832Y-6922D01*
X1837Y-6917D01*
X1855Y-6899D01*
X1878Y-6864D01*
X1913Y-6823D01*
X1954Y-6765D01*
X2001Y-6695D01*
X2047Y-6619D01*
X2094Y-6526D01*
X2146Y-6427D01*
X2193Y-6310D01*
X2240Y-6188D01*
X2281Y-6054D01*
X2316Y-5908D01*
X2339Y-5751D01*
X2356Y-5582D01*
X2362Y-5407D01*
Y-5348D01*
X2356Y-5302D01*
Y-5249D01*
X2351Y-5191D01*
X2345Y-5121D01*
X2339Y-5045D01*
X2316Y-4882D01*
X2286Y-4707D01*
X2240Y-4532D01*
X2182Y-4369D01*
Y-4363D01*
X2176Y-4357D01*
X2164Y-4340D01*
X2158Y-4316D01*
X2123Y-4258D01*
X2082Y-4183D01*
X2030Y-4095D01*
X1966Y-4008D01*
X1890Y-3908D01*
X1808Y-3815D01*
X1802Y-3809D01*
X1797Y-3804D01*
X1767Y-3774D01*
X1715Y-3728D01*
X1651Y-3675D01*
X1575Y-3617D01*
X1488Y-3553D01*
X1389Y-3494D01*
X1284Y-3448D01*
X1278D01*
X1266Y-3442D01*
X1243Y-3430D01*
X1214Y-3424D01*
X1179Y-3407D01*
X1138Y-3395D01*
X1085Y-3384D01*
X1033Y-3366D01*
X905Y-3337D01*
X759Y-3308D01*
X590Y-3291D01*
X415Y-3285D01*
D02*
G37*
G36*
X-20509D02*
X-20579D01*
X-20631Y-3291D01*
X-20695Y-3296D01*
X-20771Y-3302D01*
X-20847Y-3314D01*
X-20934Y-3325D01*
X-21121Y-3366D01*
X-21214Y-3395D01*
X-21308Y-3424D01*
X-21401Y-3465D01*
X-21488Y-3512D01*
X-21570Y-3565D01*
X-21646Y-3623D01*
X-21652Y-3629D01*
X-21663Y-3640D01*
X-21681Y-3658D01*
X-21704Y-3681D01*
X-21733Y-3716D01*
X-21768Y-3757D01*
X-21803Y-3804D01*
X-21844Y-3856D01*
X-21879Y-3920D01*
X-21914Y-3984D01*
X-21949Y-4060D01*
X-21978Y-4142D01*
X-22007Y-4223D01*
X-22030Y-4316D01*
X-22048Y-4410D01*
X-22054Y-4515D01*
X-21238Y-4544D01*
Y-4538D01*
Y-4532D01*
X-21226Y-4491D01*
X-21214Y-4439D01*
X-21191Y-4375D01*
X-21162Y-4299D01*
X-21121Y-4229D01*
X-21069Y-4159D01*
X-21010Y-4101D01*
X-21004Y-4095D01*
X-20981Y-4078D01*
X-20940Y-4054D01*
X-20882Y-4031D01*
X-20812Y-4008D01*
X-20725Y-3984D01*
X-20620Y-3967D01*
X-20497Y-3961D01*
X-20439D01*
X-20375Y-3967D01*
X-20299Y-3978D01*
X-20212Y-3996D01*
X-20118Y-4025D01*
X-20031Y-4060D01*
X-19949Y-4112D01*
X-19943Y-4118D01*
X-19932Y-4130D01*
X-19908Y-4148D01*
X-19885Y-4177D01*
X-19862Y-4212D01*
X-19838Y-4258D01*
X-19827Y-4305D01*
X-19821Y-4363D01*
Y-4369D01*
Y-4386D01*
X-19827Y-4416D01*
X-19838Y-4445D01*
X-19850Y-4486D01*
X-19868Y-4526D01*
X-19897Y-4567D01*
X-19938Y-4608D01*
X-19943Y-4614D01*
X-19973Y-4631D01*
X-19990Y-4643D01*
X-20019Y-4655D01*
X-20048Y-4672D01*
X-20089Y-4690D01*
X-20136Y-4707D01*
X-20188Y-4730D01*
X-20252Y-4754D01*
X-20316Y-4777D01*
X-20398Y-4800D01*
X-20486Y-4824D01*
X-20579Y-4847D01*
X-20684Y-4876D01*
X-20690D01*
X-20713Y-4882D01*
X-20742Y-4888D01*
X-20783Y-4899D01*
X-20830Y-4911D01*
X-20888Y-4929D01*
X-20952Y-4946D01*
X-21016Y-4964D01*
X-21156Y-5010D01*
X-21302Y-5057D01*
X-21442Y-5109D01*
X-21500Y-5139D01*
X-21558Y-5168D01*
X-21564D01*
X-21570Y-5174D01*
X-21605Y-5197D01*
X-21657Y-5232D01*
X-21722Y-5279D01*
X-21791Y-5337D01*
X-21867Y-5407D01*
X-21943Y-5488D01*
X-22007Y-5582D01*
X-22013Y-5593D01*
X-22030Y-5628D01*
X-22060Y-5681D01*
X-22089Y-5757D01*
X-22118Y-5850D01*
X-22147Y-5961D01*
X-22165Y-6083D01*
X-22170Y-6223D01*
Y-6281D01*
X-22165Y-6310D01*
X-22159Y-6351D01*
X-22147Y-6433D01*
X-22124Y-6538D01*
X-22089Y-6649D01*
X-22036Y-6759D01*
X-21972Y-6876D01*
Y-6882D01*
X-21961Y-6888D01*
X-21937Y-6922D01*
X-21891Y-6981D01*
X-21832Y-7045D01*
X-21757Y-7121D01*
X-21657Y-7191D01*
X-21553Y-7261D01*
X-21424Y-7325D01*
X-21418D01*
X-21407Y-7331D01*
X-21389Y-7337D01*
X-21360Y-7348D01*
X-21325Y-7360D01*
X-21284Y-7372D01*
X-21238Y-7383D01*
X-21185Y-7395D01*
X-21121Y-7412D01*
X-21057Y-7424D01*
X-20905Y-7447D01*
X-20736Y-7465D01*
X-20550Y-7471D01*
X-20474D01*
X-20421Y-7465D01*
X-20357Y-7459D01*
X-20287Y-7453D01*
X-20206Y-7441D01*
X-20118Y-7424D01*
X-19926Y-7383D01*
X-19827Y-7354D01*
X-19734Y-7325D01*
X-19634Y-7284D01*
X-19541Y-7237D01*
X-19454Y-7185D01*
X-19372Y-7121D01*
X-19366Y-7115D01*
X-19355Y-7103D01*
X-19331Y-7086D01*
X-19308Y-7057D01*
X-19273Y-7016D01*
X-19238Y-6969D01*
X-19197Y-6917D01*
X-19156Y-6858D01*
X-19116Y-6788D01*
X-19075Y-6713D01*
X-19034Y-6625D01*
X-18993Y-6532D01*
X-18964Y-6433D01*
X-18929Y-6322D01*
X-18906Y-6205D01*
X-18888Y-6083D01*
X-19681Y-6007D01*
Y-6013D01*
X-19687Y-6025D01*
Y-6048D01*
X-19693Y-6071D01*
X-19716Y-6141D01*
X-19745Y-6229D01*
X-19780Y-6328D01*
X-19833Y-6427D01*
X-19891Y-6514D01*
X-19967Y-6596D01*
X-19978Y-6602D01*
X-20008Y-6625D01*
X-20054Y-6654D01*
X-20124Y-6689D01*
X-20212Y-6724D01*
X-20311Y-6753D01*
X-20427Y-6777D01*
X-20561Y-6783D01*
X-20626D01*
X-20695Y-6771D01*
X-20783Y-6759D01*
X-20876Y-6742D01*
X-20975Y-6713D01*
X-21069Y-6672D01*
X-21150Y-6619D01*
X-21162Y-6614D01*
X-21185Y-6590D01*
X-21214Y-6555D01*
X-21255Y-6509D01*
X-21290Y-6450D01*
X-21325Y-6380D01*
X-21348Y-6310D01*
X-21354Y-6229D01*
Y-6223D01*
Y-6205D01*
X-21348Y-6176D01*
X-21343Y-6141D01*
X-21331Y-6106D01*
X-21319Y-6066D01*
X-21296Y-6025D01*
X-21267Y-5984D01*
X-21261Y-5978D01*
X-21249Y-5966D01*
X-21232Y-5949D01*
X-21203Y-5926D01*
X-21162Y-5897D01*
X-21109Y-5867D01*
X-21051Y-5838D01*
X-20975Y-5809D01*
X-20969D01*
X-20946Y-5797D01*
X-20905Y-5786D01*
X-20876Y-5774D01*
X-20841Y-5768D01*
X-20800Y-5757D01*
X-20754Y-5739D01*
X-20701Y-5727D01*
X-20643Y-5710D01*
X-20573Y-5692D01*
X-20497Y-5675D01*
X-20416Y-5652D01*
X-20322Y-5628D01*
X-20316D01*
X-20293Y-5623D01*
X-20258Y-5611D01*
X-20217Y-5599D01*
X-20165Y-5582D01*
X-20101Y-5564D01*
X-20037Y-5541D01*
X-19961Y-5517D01*
X-19809Y-5459D01*
X-19663Y-5389D01*
X-19588Y-5354D01*
X-19524Y-5314D01*
X-19459Y-5273D01*
X-19407Y-5232D01*
X-19401Y-5226D01*
X-19389Y-5214D01*
X-19372Y-5197D01*
X-19349Y-5174D01*
X-19320Y-5139D01*
X-19290Y-5098D01*
X-19255Y-5057D01*
X-19226Y-5004D01*
X-19156Y-4882D01*
X-19098Y-4742D01*
X-19075Y-4666D01*
X-19057Y-4591D01*
X-19046Y-4503D01*
X-19040Y-4416D01*
Y-4410D01*
Y-4404D01*
Y-4386D01*
Y-4363D01*
X-19051Y-4305D01*
X-19063Y-4229D01*
X-19081Y-4142D01*
X-19110Y-4042D01*
X-19150Y-3938D01*
X-19209Y-3839D01*
Y-3833D01*
X-19215Y-3827D01*
X-19244Y-3792D01*
X-19279Y-3745D01*
X-19337Y-3687D01*
X-19407Y-3623D01*
X-19494Y-3553D01*
X-19594Y-3489D01*
X-19710Y-3430D01*
X-19716D01*
X-19728Y-3424D01*
X-19745Y-3419D01*
X-19769Y-3407D01*
X-19804Y-3395D01*
X-19838Y-3384D01*
X-19885Y-3372D01*
X-19938Y-3355D01*
X-20054Y-3331D01*
X-20188Y-3308D01*
X-20340Y-3291D01*
X-20509Y-3285D01*
D02*
G37*
G36*
X-18643Y-8353D02*
X-19430D01*
X-21098Y-11070D01*
Y-8353D01*
X-21850D01*
Y-12388D01*
X-21034D01*
X-19395Y-9729D01*
Y-12388D01*
X-18643D01*
Y-8353D01*
D02*
G37*
G36*
X-16113Y-8277D02*
X-16183D01*
X-16236Y-8283D01*
X-16300Y-8289D01*
X-16375Y-8295D01*
X-16457Y-8301D01*
X-16544Y-8318D01*
X-16731Y-8353D01*
X-16923Y-8411D01*
X-17023Y-8446D01*
X-17116Y-8487D01*
X-17203Y-8534D01*
X-17285Y-8592D01*
X-17291Y-8598D01*
X-17302Y-8604D01*
X-17326Y-8627D01*
X-17355Y-8651D01*
X-17390Y-8680D01*
X-17425Y-8721D01*
X-17466Y-8767D01*
X-17512Y-8820D01*
X-17559Y-8878D01*
X-17605Y-8942D01*
X-17652Y-9012D01*
X-17693Y-9094D01*
X-17740Y-9175D01*
X-17775Y-9263D01*
X-17810Y-9362D01*
X-17833Y-9461D01*
X-17023Y-9612D01*
Y-9607D01*
X-17017Y-9601D01*
X-17005Y-9566D01*
X-16982Y-9513D01*
X-16947Y-9443D01*
X-16906Y-9368D01*
X-16848Y-9292D01*
X-16778Y-9216D01*
X-16696Y-9146D01*
X-16684Y-9140D01*
X-16655Y-9117D01*
X-16603Y-9088D01*
X-16539Y-9059D01*
X-16451Y-9024D01*
X-16352Y-9000D01*
X-16241Y-8977D01*
X-16113Y-8971D01*
X-16061D01*
X-16026Y-8977D01*
X-15979Y-8983D01*
X-15926Y-8989D01*
X-15868Y-9000D01*
X-15804Y-9012D01*
X-15670Y-9053D01*
X-15600Y-9082D01*
X-15530Y-9117D01*
X-15460Y-9158D01*
X-15390Y-9199D01*
X-15326Y-9257D01*
X-15262Y-9315D01*
X-15256Y-9321D01*
X-15250Y-9333D01*
X-15233Y-9350D01*
X-15215Y-9379D01*
X-15192Y-9414D01*
X-15163Y-9455D01*
X-15134Y-9508D01*
X-15110Y-9566D01*
X-15081Y-9636D01*
X-15052Y-9712D01*
X-15023Y-9793D01*
X-14999Y-9881D01*
X-14982Y-9980D01*
X-14965Y-10091D01*
X-14959Y-10201D01*
X-14953Y-10324D01*
Y-10330D01*
Y-10353D01*
Y-10394D01*
X-14959Y-10440D01*
X-14965Y-10504D01*
X-14970Y-10569D01*
X-14982Y-10650D01*
X-14994Y-10732D01*
X-15029Y-10907D01*
X-15087Y-11088D01*
X-15122Y-11175D01*
X-15163Y-11257D01*
X-15215Y-11338D01*
X-15268Y-11408D01*
X-15274Y-11414D01*
X-15285Y-11426D01*
X-15303Y-11443D01*
X-15326Y-11467D01*
X-15361Y-11490D01*
X-15396Y-11525D01*
X-15443Y-11554D01*
X-15495Y-11589D01*
X-15553Y-11624D01*
X-15612Y-11653D01*
X-15757Y-11711D01*
X-15839Y-11735D01*
X-15921Y-11752D01*
X-16014Y-11764D01*
X-16107Y-11770D01*
X-16154D01*
X-16201Y-11764D01*
X-16271Y-11758D01*
X-16346Y-11746D01*
X-16434Y-11729D01*
X-16527Y-11705D01*
X-16620Y-11671D01*
X-16626D01*
X-16632Y-11665D01*
X-16661Y-11653D01*
X-16714Y-11630D01*
X-16772Y-11601D01*
X-16842Y-11566D01*
X-16918Y-11525D01*
X-16993Y-11478D01*
X-17063Y-11426D01*
Y-10907D01*
X-16131D01*
Y-10225D01*
X-17885D01*
Y-11845D01*
X-17874Y-11857D01*
X-17856Y-11869D01*
X-17839Y-11886D01*
X-17810Y-11909D01*
X-17780Y-11933D01*
X-17699Y-11991D01*
X-17588Y-12055D01*
X-17460Y-12131D01*
X-17314Y-12207D01*
X-17139Y-12277D01*
X-17133D01*
X-17116Y-12283D01*
X-17093Y-12294D01*
X-17057Y-12306D01*
X-17011Y-12318D01*
X-16958Y-12335D01*
X-16900Y-12353D01*
X-16836Y-12370D01*
X-16690Y-12405D01*
X-16521Y-12434D01*
X-16346Y-12458D01*
X-16160Y-12463D01*
X-16096D01*
X-16055Y-12458D01*
X-15996D01*
X-15932Y-12452D01*
X-15862Y-12440D01*
X-15781Y-12428D01*
X-15612Y-12399D01*
X-15425Y-12353D01*
X-15233Y-12289D01*
X-15145Y-12248D01*
X-15052Y-12201D01*
X-15046Y-12195D01*
X-15034Y-12189D01*
X-15005Y-12172D01*
X-14976Y-12149D01*
X-14935Y-12125D01*
X-14895Y-12090D01*
X-14842Y-12049D01*
X-14790Y-12003D01*
X-14673Y-11898D01*
X-14557Y-11764D01*
X-14446Y-11612D01*
X-14347Y-11437D01*
Y-11432D01*
X-14335Y-11414D01*
X-14323Y-11385D01*
X-14312Y-11350D01*
X-14294Y-11303D01*
X-14271Y-11251D01*
X-14253Y-11187D01*
X-14230Y-11117D01*
X-14207Y-11041D01*
X-14189Y-10953D01*
X-14148Y-10773D01*
X-14125Y-10575D01*
X-14113Y-10359D01*
Y-10295D01*
X-14119Y-10254D01*
Y-10195D01*
X-14125Y-10131D01*
X-14137Y-10061D01*
X-14148Y-9980D01*
X-14177Y-9811D01*
X-14224Y-9618D01*
X-14288Y-9426D01*
X-14329Y-9333D01*
X-14376Y-9239D01*
X-14382Y-9234D01*
X-14387Y-9216D01*
X-14405Y-9193D01*
X-14422Y-9158D01*
X-14451Y-9117D01*
X-14487Y-9070D01*
X-14527Y-9018D01*
X-14568Y-8960D01*
X-14621Y-8901D01*
X-14679Y-8837D01*
X-14743Y-8773D01*
X-14813Y-8709D01*
X-14889Y-8651D01*
X-14965Y-8586D01*
X-15145Y-8482D01*
X-15151D01*
X-15163Y-8470D01*
X-15186Y-8464D01*
X-15215Y-8446D01*
X-15256Y-8435D01*
X-15297Y-8417D01*
X-15355Y-8400D01*
X-15414Y-8377D01*
X-15478Y-8359D01*
X-15553Y-8342D01*
X-15635Y-8324D01*
X-15717Y-8307D01*
X-15903Y-8283D01*
X-16113Y-8277D01*
D02*
G37*
G36*
X-22713Y-8353D02*
X-24322D01*
X-24368Y-8359D01*
X-24479Y-8365D01*
X-24602Y-8371D01*
X-24730Y-8388D01*
X-24852Y-8406D01*
X-24963Y-8435D01*
X-24969D01*
X-24981Y-8441D01*
X-24998Y-8446D01*
X-25021Y-8452D01*
X-25091Y-8482D01*
X-25173Y-8522D01*
X-25266Y-8575D01*
X-25371Y-8639D01*
X-25470Y-8715D01*
X-25569Y-8808D01*
X-25575D01*
X-25581Y-8820D01*
X-25610Y-8855D01*
X-25657Y-8913D01*
X-25709Y-8989D01*
X-25773Y-9082D01*
X-25837Y-9193D01*
X-25902Y-9321D01*
X-25954Y-9461D01*
Y-9467D01*
X-25960Y-9478D01*
X-25966Y-9502D01*
X-25977Y-9531D01*
X-25983Y-9566D01*
X-25995Y-9612D01*
X-26007Y-9665D01*
X-26024Y-9723D01*
X-26036Y-9787D01*
X-26047Y-9863D01*
X-26059Y-9939D01*
X-26065Y-10026D01*
X-26082Y-10207D01*
X-26088Y-10411D01*
Y-10493D01*
X-26082Y-10539D01*
Y-10586D01*
X-26076Y-10644D01*
X-26071Y-10708D01*
X-26059Y-10843D01*
X-26036Y-10983D01*
X-26001Y-11128D01*
X-25960Y-11268D01*
Y-11274D01*
X-25954Y-11286D01*
X-25943Y-11309D01*
X-25931Y-11344D01*
X-25919Y-11379D01*
X-25896Y-11420D01*
X-25849Y-11525D01*
X-25791Y-11636D01*
X-25715Y-11758D01*
X-25628Y-11875D01*
X-25528Y-11985D01*
X-25517Y-11997D01*
X-25488Y-12020D01*
X-25441Y-12055D01*
X-25377Y-12102D01*
X-25295Y-12154D01*
X-25202Y-12207D01*
X-25085Y-12259D01*
X-24957Y-12306D01*
X-24951D01*
X-24946Y-12312D01*
X-24928D01*
X-24911Y-12318D01*
X-24846Y-12329D01*
X-24765Y-12347D01*
X-24666Y-12364D01*
X-24543Y-12376D01*
X-24397Y-12382D01*
X-24240Y-12388D01*
X-22713D01*
Y-8353D01*
D02*
G37*
%LPD*%
G36*
X-12090Y-5191D02*
X-12650D01*
X-12691Y-5185D01*
X-12796D01*
X-12901Y-5179D01*
X-13006Y-5168D01*
X-13099Y-5150D01*
X-13140Y-5144D01*
X-13175Y-5133D01*
X-13181Y-5127D01*
X-13204Y-5121D01*
X-13233Y-5104D01*
X-13268Y-5086D01*
X-13309Y-5057D01*
X-13350Y-5022D01*
X-13396Y-4981D01*
X-13431Y-4935D01*
X-13437Y-4929D01*
X-13449Y-4911D01*
X-13460Y-4882D01*
X-13478Y-4841D01*
X-13495Y-4795D01*
X-13513Y-4742D01*
X-13519Y-4684D01*
X-13524Y-4620D01*
Y-4608D01*
Y-4585D01*
X-13519Y-4544D01*
X-13507Y-4491D01*
X-13490Y-4433D01*
X-13466Y-4369D01*
X-13437Y-4311D01*
X-13390Y-4252D01*
X-13385Y-4247D01*
X-13367Y-4229D01*
X-13338Y-4206D01*
X-13303Y-4177D01*
X-13256Y-4142D01*
X-13198Y-4112D01*
X-13134Y-4089D01*
X-13064Y-4072D01*
X-13058D01*
X-13035Y-4066D01*
X-12994Y-4060D01*
X-12936Y-4054D01*
X-12860D01*
X-12808Y-4048D01*
X-12755D01*
X-12697Y-4042D01*
X-12090D01*
Y-5191D01*
D02*
G37*
G36*
X485Y-3984D02*
X532Y-3990D01*
X578Y-3996D01*
X695Y-4019D01*
X823Y-4066D01*
X893Y-4089D01*
X963Y-4124D01*
X1027Y-4165D01*
X1097Y-4212D01*
X1161Y-4264D01*
X1220Y-4328D01*
X1225Y-4334D01*
X1231Y-4346D01*
X1249Y-4363D01*
X1266Y-4392D01*
X1290Y-4433D01*
X1313Y-4474D01*
X1342Y-4526D01*
X1371Y-4591D01*
X1400Y-4660D01*
X1429Y-4736D01*
X1453Y-4824D01*
X1476Y-4917D01*
X1493Y-5022D01*
X1511Y-5133D01*
X1517Y-5249D01*
X1523Y-5378D01*
Y-5383D01*
Y-5407D01*
Y-5442D01*
X1517Y-5488D01*
X1511Y-5547D01*
X1505Y-5617D01*
X1493Y-5687D01*
X1482Y-5768D01*
X1447Y-5937D01*
X1389Y-6106D01*
X1354Y-6194D01*
X1313Y-6275D01*
X1260Y-6351D01*
X1208Y-6421D01*
X1202Y-6427D01*
X1190Y-6439D01*
X1173Y-6456D01*
X1150Y-6474D01*
X1120Y-6503D01*
X1080Y-6532D01*
X1039Y-6567D01*
X986Y-6596D01*
X876Y-6666D01*
X736Y-6718D01*
X660Y-6742D01*
X578Y-6759D01*
X491Y-6771D01*
X403Y-6777D01*
X357D01*
X322Y-6771D01*
X281Y-6765D01*
X234Y-6759D01*
X123Y-6730D01*
X-5Y-6689D01*
X-69Y-6660D01*
X-139Y-6631D01*
X-203Y-6590D01*
X-273Y-6544D01*
X-337Y-6491D01*
X-395Y-6427D01*
X-401Y-6421D01*
X-407Y-6409D01*
X-424Y-6392D01*
X-442Y-6363D01*
X-471Y-6322D01*
X-495Y-6275D01*
X-524Y-6223D01*
X-553Y-6159D01*
X-582Y-6089D01*
X-611Y-6013D01*
X-640Y-5926D01*
X-664Y-5827D01*
X-681Y-5727D01*
X-699Y-5617D01*
X-704Y-5494D01*
X-710Y-5366D01*
Y-5360D01*
Y-5337D01*
Y-5302D01*
X-704Y-5249D01*
X-699Y-5191D01*
X-693Y-5127D01*
X-687Y-5051D01*
X-669Y-4975D01*
X-634Y-4806D01*
X-582Y-4631D01*
X-547Y-4544D01*
X-506Y-4468D01*
X-454Y-4392D01*
X-401Y-4322D01*
X-395Y-4316D01*
X-390Y-4305D01*
X-372Y-4293D01*
X-349Y-4270D01*
X-314Y-4241D01*
X-279Y-4212D01*
X-238Y-4183D01*
X-186Y-4148D01*
X-133Y-4118D01*
X-69Y-4089D01*
X65Y-4031D01*
X141Y-4008D01*
X223Y-3996D01*
X310Y-3984D01*
X403Y-3978D01*
X450D01*
X485Y-3984D01*
D02*
G37*
G36*
X-23529Y-11705D02*
X-24246D01*
X-24322Y-11700D01*
X-24403D01*
X-24485Y-11688D01*
X-24561Y-11682D01*
X-24625Y-11671D01*
X-24636D01*
X-24660Y-11659D01*
X-24695Y-11647D01*
X-24742Y-11630D01*
X-24794Y-11606D01*
X-24846Y-11577D01*
X-24899Y-11542D01*
X-24951Y-11501D01*
X-24957Y-11496D01*
X-24975Y-11478D01*
X-24998Y-11449D01*
X-25027Y-11408D01*
X-25056Y-11356D01*
X-25097Y-11292D01*
X-25126Y-11210D01*
X-25161Y-11117D01*
Y-11111D01*
X-25167Y-11105D01*
Y-11088D01*
X-25173Y-11064D01*
X-25185Y-11041D01*
X-25190Y-11006D01*
X-25208Y-10918D01*
X-25220Y-10813D01*
X-25237Y-10691D01*
X-25243Y-10539D01*
X-25249Y-10376D01*
Y-10370D01*
Y-10353D01*
Y-10330D01*
Y-10300D01*
Y-10260D01*
X-25243Y-10213D01*
X-25237Y-10114D01*
X-25225Y-9997D01*
X-25214Y-9875D01*
X-25190Y-9764D01*
X-25161Y-9659D01*
Y-9653D01*
X-25155Y-9647D01*
X-25144Y-9618D01*
X-25126Y-9572D01*
X-25103Y-9513D01*
X-25068Y-9455D01*
X-25027Y-9391D01*
X-24981Y-9327D01*
X-24928Y-9268D01*
X-24922Y-9263D01*
X-24905Y-9245D01*
X-24870Y-9222D01*
X-24829Y-9193D01*
X-24771Y-9158D01*
X-24706Y-9129D01*
X-24636Y-9099D01*
X-24555Y-9076D01*
X-24549D01*
X-24520Y-9070D01*
X-24473Y-9065D01*
X-24409Y-9053D01*
X-24368D01*
X-24316Y-9047D01*
X-24263D01*
X-24205Y-9041D01*
X-24135D01*
X-24059Y-9035D01*
X-23529D01*
Y-11705D01*
D02*
G37*
D24*
X787Y0D02*
G03*
X787Y0I-787J0D01*
G01*
X-6265Y13149D02*
X-4766Y17086D01*
X-3266Y13149D01*
X-3829Y14462D02*
X-5703D01*
X-9808Y16523D02*
X-9433Y16898D01*
X-8871Y17086D01*
X-8121D01*
X-7559Y16898D01*
X-7184Y16523D01*
Y16149D01*
X-7371Y15774D01*
X-7559Y15586D01*
X-7934Y15399D01*
X-9058Y15024D01*
X-9433Y14836D01*
X-9621Y14649D01*
X-9808Y14274D01*
Y13712D01*
X-9433Y13337D01*
X-8871Y13149D01*
X-8121D01*
X-7559Y13337D01*
X-7184Y13712D01*
X-12938Y17086D02*
X-11064D01*
X-10876Y15399D01*
X-11064Y15586D01*
X-11626Y15774D01*
X-12188D01*
X-12751Y15586D01*
X-13126Y15211D01*
X-13313Y14649D01*
Y14274D01*
X-13126Y13712D01*
X-12751Y13337D01*
X-12188Y13149D01*
X-11626D01*
X-11064Y13337D01*
X-10876Y13524D01*
X-10689Y13899D01*
X-16443Y16523D02*
X-16256Y16898D01*
X-15694Y17086D01*
X-15319D01*
X-14756Y16898D01*
X-14381Y16336D01*
X-14194Y15399D01*
Y14462D01*
X-14381Y13712D01*
X-14756Y13337D01*
X-15319Y13149D01*
X-15506D01*
X-16068Y13337D01*
X-16443Y13712D01*
X-16631Y14274D01*
Y14462D01*
X-16443Y15024D01*
X-16068Y15399D01*
X-15506Y15586D01*
X-15319D01*
X-14756Y15399D01*
X-14381Y15024D01*
X-14194Y14462D01*
X-18618Y17086D02*
X-18055Y16898D01*
X-17680Y16336D01*
X-17493Y15399D01*
Y14836D01*
X-17680Y13899D01*
X-18055Y13337D01*
X-18618Y13149D01*
X-18992D01*
X-19555Y13337D01*
X-19930Y13899D01*
X-20117Y14836D01*
Y15399D01*
X-19930Y16336D01*
X-19555Y16898D01*
X-18992Y17086D01*
X-18618D01*
X-22123D02*
X-21560Y16898D01*
X-21185Y16336D01*
X-20998Y15399D01*
Y14836D01*
X-21185Y13899D01*
X-21560Y13337D01*
X-22123Y13149D01*
X-22497D01*
X-23060Y13337D01*
X-23435Y13899D01*
X-23622Y14836D01*
Y15399D01*
X-23435Y16336D01*
X-23060Y16898D01*
X-22497Y17086D01*
X-22123D01*
X-7952Y6536D02*
X-6453Y10473D01*
X-4953Y6536D01*
X-5516Y7848D02*
X-7390D01*
X-11495Y9910D02*
X-11120Y10285D01*
X-10558Y10473D01*
X-9808D01*
X-9246Y10285D01*
X-8871Y9910D01*
Y9535D01*
X-9058Y9161D01*
X-9246Y8973D01*
X-9621Y8786D01*
X-10745Y8411D01*
X-11120Y8223D01*
X-11308Y8036D01*
X-11495Y7661D01*
Y7099D01*
X-11120Y6724D01*
X-10558Y6536D01*
X-9808D01*
X-9246Y6724D01*
X-8871Y7099D01*
X-14625Y10473D02*
X-12751D01*
X-12563Y8786D01*
X-12751Y8973D01*
X-13313Y9161D01*
X-13875D01*
X-14438Y8973D01*
X-14812Y8598D01*
X-15000Y8036D01*
Y7661D01*
X-14812Y7099D01*
X-14438Y6724D01*
X-13875Y6536D01*
X-13313D01*
X-12751Y6724D01*
X-12563Y6911D01*
X-12376Y7286D01*
X-18130Y9910D02*
X-17943Y10285D01*
X-17380Y10473D01*
X-17006D01*
X-16443Y10285D01*
X-16068Y9723D01*
X-15881Y8786D01*
Y7848D01*
X-16068Y7099D01*
X-16443Y6724D01*
X-17006Y6536D01*
X-17193D01*
X-17755Y6724D01*
X-18130Y7099D01*
X-18318Y7661D01*
Y7848D01*
X-18130Y8411D01*
X-17755Y8786D01*
X-17193Y8973D01*
X-17006D01*
X-16443Y8786D01*
X-16068Y8411D01*
X-15881Y7848D01*
X-20304Y10473D02*
X-19742Y10285D01*
X-19367Y9723D01*
X-19180Y8786D01*
Y8223D01*
X-19367Y7286D01*
X-19742Y6724D01*
X-20304Y6536D01*
X-20679D01*
X-21242Y6724D01*
X-21617Y7286D01*
X-21804Y8223D01*
Y8786D01*
X-21617Y9723D01*
X-21242Y10285D01*
X-20679Y10473D01*
X-20304D01*
X-22685Y9723D02*
X-23060Y9910D01*
X-23622Y10473D01*
Y6536D01*
X-8590Y3374D02*
X-8215Y3749D01*
X-7652Y3937D01*
X-6903D01*
X-6340Y3749D01*
X-5965Y3374D01*
Y2999D01*
X-6153Y2624D01*
X-6340Y2437D01*
X-6715Y2250D01*
X-7840Y1875D01*
X-8215Y1687D01*
X-8402Y1500D01*
X-8590Y1125D01*
Y563D01*
X-8215Y188D01*
X-7652Y0D01*
X-6903D01*
X-6340Y188D01*
X-5965Y563D01*
X-9471Y1687D02*
X-12844D01*
X-14006Y3937D02*
Y0D01*
X-16256D01*
X-19686D02*
X-18186Y3937D01*
X-16687Y0D01*
X-17249Y1312D02*
X-19124D01*
X-20604Y3937D02*
Y0D01*
Y3937D02*
X-22291D01*
X-22853Y3749D01*
X-23041Y3562D01*
X-23228Y3187D01*
Y2812D01*
X-23041Y2437D01*
X-22853Y2250D01*
X-22291Y2062D01*
X-20604D02*
X-22291D01*
X-22853Y1875D01*
X-23041Y1687D01*
X-23228Y1312D01*
Y750D01*
X-23041Y375D01*
X-22853Y188D01*
X-22291Y0D01*
X-20604D01*
X-8026Y-17079D02*
Y-16892D01*
X-8214Y-16517D01*
X-8401Y-16330D01*
X-8776Y-16142D01*
X-9526D01*
X-9901Y-16330D01*
X-10088Y-16517D01*
X-10276Y-16892D01*
Y-17267D01*
X-10088Y-17642D01*
X-9713Y-18204D01*
X-7839Y-20078D01*
X-10463D01*
X-12469Y-16142D02*
X-11906Y-16330D01*
X-11531Y-16892D01*
X-11344Y-17829D01*
Y-18391D01*
X-11531Y-19329D01*
X-11906Y-19891D01*
X-12469Y-20078D01*
X-12844D01*
X-13406Y-19891D01*
X-13781Y-19329D01*
X-13968Y-18391D01*
Y-17829D01*
X-13781Y-16892D01*
X-13406Y-16330D01*
X-12844Y-16142D01*
X-12469D01*
X-15036Y-17079D02*
Y-16892D01*
X-15224Y-16517D01*
X-15411Y-16330D01*
X-15786Y-16142D01*
X-16536D01*
X-16911Y-16330D01*
X-17098Y-16517D01*
X-17286Y-16892D01*
Y-17267D01*
X-17098Y-17642D01*
X-16724Y-18204D01*
X-14849Y-20078D01*
X-17473D01*
X-18354Y-16892D02*
X-18729Y-16704D01*
X-19291Y-16142D01*
Y-20078D01*
M02*
